<svg xmlns="http://www.w3.org/2000/svg" viewBox="0 0 467.55 52.23"><defs><style>.cls-1{fill:#fff;}</style></defs><title>christmas-title</title><path class="cls-1" d="M229.77 295.31a3.1 3.1 0 0 1-.81-2.56 14.72 14.72 0 0 1 .69-3.37 29.3 29.3 0 0 1 1.25-3.25q.69-1.5 1-2.12t.78-2q.59-1.47 1.41-3.44t1.69-4.16 1.69-4.16 1.41-3.44q.59-1.47.78-2t.34-1.22q.22-.84.53-1.75t.69-1.75a3.31 3.31 0 0 1 .88-1.25 1.16 1.16 0 0 1 1.13-.22 3 3 0 0 1 1.38 1.31 7 7 0 0 1-.47 1.59q-.53 1.53-1.44 4.06l-2.06 5.75q-1.16 3.22-2.41 6.56t-2.47 6.56q-1.22 3.22-2.19 5.75t-1.62 4.09a7.69 7.69 0 0 1-.78 1.63 1.11 1.11 0 0 1-.66-.19 1.91 1.91 0 0 1-.74-.42zM247.77 295.31a1.46 1.46 0 0 1-.72-1.44 3.34 3.34 0 0 1 .72-1.44q2.37-2.81 4.75-5.41t4.56-5.28q2.19-2.69 4.16-5.59a44.56 44.56 0 0 0 3.53-6.28 4.94 4.94 0 0 0 .66-2.62 1.26 1.26 0 0 0-.94-1.09 4 4 0 0 0-2 .06 21.82 21.82 0 0 0-2.47.75q-1.28.47-2.47 1t-1.91.75a1 1 0 0 1-.84.09 1.73 1.73 0 0 1 .75-1 11.34 11.34 0 0 1 2.78-2.31 13.29 13.29 0 0 1 3.38-1.47 9.42 9.42 0 0 1 3.25-.34 4.22 4.22 0 0 1 2.5 1 3.37 3.37 0 0 1 1.06 2.47 9.63 9.63 0 0 1-1 4.19 25.84 25.84 0 0 1-3.34 5.59q-2 2.59-4.16 5.09t-4.12 5a22.18 22.18 0 0 0-3.19 5.47 6 6 0 0 0 3.09-.25q2.09-.56 4.72-1.5l5.47-1.94a45.62 45.62 0 0 1 5.44-1.56 17 17 0 0 1 4.59-.44 3.48 3.48 0 0 1 2.88 1.44 2.13 2.13 0 0 1 0 1.44 11.88 11.88 0 0 0-4.5.28 57.31 57.31 0 0 0-5.59 1.59q-3 1-6.06 2.16t-5.91 1.91a22.58 22.58 0 0 1-5.19.81 6 6 0 0 1-3.88-1.13zM317.34 294.85a.81.81 0 0 1-1 .74 2.83 2.83 0 0 1-1.54-.8 5.17 5.17 0 0 1-1.41-4.8 5.39 5.39 0 0 1 1.25-2.3 26.68 26.68 0 0 1 2.56-2.66q1.5-1.38 3.33-2.82t3.65-2.78l3.42-2.53q1.6-1.18 2.69-2.08-7.87 4-13.06 6.4a58.08 58.08 0 0 1-6.85 2.82 2.68 2.68 0 0 1-2-.48 7.54 7.54 0 0 1-2-1.86 7.9 7.9 0 0 1-1.38-2.78 5.81 5.81 0 0 1 0-3.2 7.68 7.68 0 0 1 2.18-2.85 40.42 40.42 0 0 1 4.83-3.81 75.9 75.9 0 0 1 6.82-4.13 75 75 0 0 1 8.13-3.78 72.47 72.47 0 0 1 8.83-2.85 40.93 40.93 0 0 1 8.83-1.28 10.29 10.29 0 0 1 6.34 1.63 13.94 13.94 0 0 1 4.06 4.22 16.56 16.56 0 0 1 2.08 5.09 13.54 13.54 0 0 1 .38 4.29 20.14 20.14 0 0 1-2.21 6.69 39.39 39.39 0 0 1-4.74 7.07 54.92 54.92 0 0 1-6.66 6.72 56.41 56.41 0 0 1-7.9 5.66 46.61 46.61 0 0 1-8.51 4 28.56 28.56 0 0 1-18.24 0 22.21 22.21 0 0 1-6.34-3.62 15.12 15.12 0 0 1-3.58-4.22 13.84 13.84 0 0 1-1.41-3.36.89.89 0 0 1 .93-1.22 6.07 6.07 0 0 1 2.69.42 11.8 11.8 0 0 1 2.88 1.54 3.21 3.21 0 0 1 1.5 2.21 4.69 4.69 0 0 0 1.18 2.59 9.55 9.55 0 0 0 2.75 2.18 13.79 13.79 0 0 0 4 1.38 17.11 17.11 0 0 0 4.93.19 25.29 25.29 0 0 0 8.64-2.59 54.68 54.68 0 0 0 8.9-5.47 64.9 64.9 0 0 0 8.1-7.2 47.86 47.86 0 0 0 6.14-7.84 24.28 24.28 0 0 0 3.17-7.39 7.12 7.12 0 0 0-.9-5.86 5.43 5.43 0 0 0-3.74-2.11 20.88 20.88 0 0 0-6 0 50.31 50.31 0 0 0-7.42 1.54q-4 1.12-7.94 2.66t-7.55 3.33a65.61 65.61 0 0 0-6.3 3.52 24.18 24.18 0 0 0-4.16 3.23q-1.47 1.5-1.09 2.46t2.21.58a29.17 29.17 0 0 0 4.58-1.09q2.69-.83 5.79-2.14t5.89-2.59q2.78-1.28 4.86-2.37a15.88 15.88 0 0 0 2.66-1.6 1.13 1.13 0 0 1 1.57-.13 3 3 0 0 1 .93 1.63 5.42 5.42 0 0 1 0 2.27 2.51 2.51 0 0 1-1.18 1.79 27.39 27.39 0 0 0-2.62 1.89q-1.67 1.31-3.62 3.07t-4 3.78q-2 2-3.81 4a36.68 36.68 0 0 0-3 3.84 10.36 10.36 0 0 0-1.52 3.16zM378.2 278.91q-1.73 2.69-3.14 4.83t-2.3 3.65a14.77 14.77 0 0 0-1.22 2.4q-.32.9.06 1.09t1.82-.86q1.38-1.12 3.1-2.75t3.39-3.36q1.66-1.73 2.69-2.75a8.26 8.26 0 0 1 1.73-1.34 3.62 3.62 0 0 1 1.44-.54c.36 0 .53.12.51.42a3.31 3.31 0 0 1-1 1.47q-1.41 1.41-3.39 3.78l-3.94 4.7q-2 2.34-3.55 4.1a6.88 6.88 0 0 1-2.3 2 2.49 2.49 0 0 1-1.76 0 3.5 3.5 0 0 1-1.38-1 4.08 4.08 0 0 1-.83-1.6 4.67 4.67 0 0 1-.13-1.89 6.1 6.1 0 0 1 .51-1.82q.45-1.06 1-2.11l1.09-2q.51-.93.83-1.44a15 15 0 0 1-1.09 1.5q-.83 1.06-2 2.4t-2.59 2.82a35.68 35.68 0 0 1-2.82 2.66 23.89 23.89 0 0 1-2.69 2 4.34 4.34 0 0 1-2.18.8 3 3 0 0 1-2-.8 6.51 6.51 0 0 1-1.54-2 9.35 9.35 0 0 1-.86-2.53 4.86 4.86 0 0 1 .06-2.37 11.66 11.66 0 0 1 1.7-3.14q1.38-2 3.3-4.26t4.19-4.58q2.27-2.3 4.45-4.13a25.05 25.05 0 0 1 4.06-2.85 4.66 4.66 0 0 1 3-.77 2.46 2.46 0 0 1 1 .77 5.86 5.86 0 0 1 1 1.6 7.44 7.44 0 0 1 .54 2.18 5 5 0 0 1-.32 2.37 3.51 3.51 0 0 1 1.41 1.57 1.75 1.75 0 0 1 .15 1.78zm-3.52-5.63q-.77-.38-2.43.61a25.1 25.1 0 0 0-3.71 2.82q-2 1.82-4.22 4.1a55.36 55.36 0 0 0-3.81 4.38 28.39 28.39 0 0 0-2.51 3.81q-.9 1.67-.38 2.24t2.08-.35a24.18 24.18 0 0 0 3.87-2.91q2.24-2 4.83-4.7t5-5.73a22.23 22.23 0 0 0 1.25-2.78q.41-1.23.03-1.49zM392.79 268.8a1.46 1.46 0 0 1 1.22-.38 3.45 3.45 0 0 1 1.44.45 3.08 3.08 0 0 1 1.06 1 .84.84 0 0 1 .06 1q-.77 1-2.34 2.82t-3.36 3.87l-3.65 4.26q-1.86 2.18-3.2 4a29.05 29.05 0 0 0-2 3.1q-.67 1.25-.1 1.5.32.13 1.76-1t3.46-2.91q2-1.82 4.35-4t4.51-4.32l3.9-3.81q1.73-1.7 2.56-2.46a.87.87 0 0 1 1.15 0 3.79 3.79 0 0 1 1.22 1.18 4.37 4.37 0 0 1 .67 1.7 1.61 1.61 0 0 1-.42 1.5 90.72 90.72 0 0 0-6.27 7.14q-3.07 3.87-5.92 8.06t-5.38 8.5q-2.53 4.32-4.58 8.48a.72.72 0 0 1-.93.38 2.29 2.29 0 0 1-1.12-.9 5.43 5.43 0 0 1-.7-4.54 14.46 14.46 0 0 1 1.66-2.94q1.41-2.11 3.39-4.74t4.26-5.5q2.27-2.88 4.26-5.31t3.39-4.1q1.41-1.66 1.6-1.92-.64.58-1.89 2l-2.85 3.09-3.33 3.68q-1.73 1.92-3.3 3.49t-2.82 2.59a3.69 3.69 0 0 1-1.82 1 2.31 2.31 0 0 1-1.63-.7 4.72 4.72 0 0 1-1.15-1.92 9.51 9.51 0 0 1-.45-2.88 12.38 12.38 0 0 1 .48-3.52 13 13 0 0 1 1.76-3.3q1.44-2.14 3.33-4.64t4-4.93q2.06-2.41 3.72-4.07zM412.18 290.24a11 11 0 0 1-3.26 4.29 12.23 12.23 0 0 1-4.35 2.27 7.57 7.57 0 0 1-4.06.1 3.31 3.31 0 0 1-2.46-4 7.43 7.43 0 0 1 .58-1.76 4.74 4.74 0 0 1 .9-1.31.79.79 0 0 1 .9-.32 1 1 0 0 1 .51.64c.09.3.19.62.32 1a3.86 3.86 0 0 0 .67 1.09 4 4 0 0 0 1.57 1 2.8 2.8 0 0 0 2.94-.45 6 6 0 0 0 2.11-2.82 4.13 4.13 0 0 0 .06-2.59 20.65 20.65 0 0 0-1-2.82q-.64-1.44-1.22-2.78a6.25 6.25 0 0 1-.58-2.43 5.66 5.66 0 0 1 .86-2.78 15.07 15.07 0 0 1 2.18-2.88 22.51 22.51 0 0 1 2.91-2.56 17.18 17.18 0 0 1 3.17-1.89 8.08 8.08 0 0 1 2.88-.77 2.62 2.62 0 0 1 2.08.7 1.9 1.9 0 0 1 .45 1.6 5.93 5.93 0 0 1-.67 2 10.07 10.07 0 0 1-1.44 2 10 10 0 0 1-1.86 1.63 19.16 19.16 0 0 1-3.07 1.73 15.39 15.39 0 0 1-3.58 1.22 6.63 6.63 0 0 0 1.09 2.11 14.1 14.1 0 0 1 1.38 2.27 8.32 8.32 0 0 1 .77 2.82 7.63 7.63 0 0 1-.78 3.69zm2.3-16.7q1.41-1.22 1.25-1.54t-1.12.16a11.37 11.37 0 0 0-2.27 1.63 11 11 0 0 0-2.27 2.82.57.57 0 0 0-.16.32 1.18 1.18 0 0 1-.1.32l1.86-1.38q1.15-.87 2.82-2.33zM453.66 271.23a2.5 2.5 0 0 1 2.72.29 4 4 0 0 1 1.31 2.34 51.88 51.88 0 0 0 6.56-.61 14.82 14.82 0 0 0 3.62-1.06 6.11 6.11 0 0 1 1.18-.35.75.75 0 0 1 .7.1.61.61 0 0 1-.16.67 6.43 6.43 0 0 1-1.47 1.31 9 9 0 0 1-2.08 1.15 22.72 22.72 0 0 1-2.66.9 29.64 29.64 0 0 1-2.94.64 17.9 17.9 0 0 1-2.94.26 18.6 18.6 0 0 1-1.38 4.16 32.83 32.83 0 0 1-2.37 4.29 46.29 46.29 0 0 1-3 4.06 29.65 29.65 0 0 1-3.26 3.42 17.63 17.63 0 0 1-3.26 2.34 6.19 6.19 0 0 1-2.88.86 4.59 4.59 0 0 1-2.78-.86 6 6 0 0 1-1.86-2.21 9.51 9.51 0 0 1-.9-3 9.28 9.28 0 0 1 .1-3.17 16 16 0 0 1 1.89-4.8 40.68 40.68 0 0 1 3.42-5.15 37.7 37.7 0 0 1 3.94-4.35 10.74 10.74 0 0 1 3.49-2.4q.77-.25 1.44-.45a3.5 3.5 0 0 1 1.31-.13 2.45 2.45 0 0 1 1.18.45 4.12 4.12 0 0 1 1.06 1.22v.06zm-15.17 20.61a1.29 1.29 0 0 0 1.66.64 8.17 8.17 0 0 0 2.62-1.44 28.28 28.28 0 0 0 3.17-2.88q1.69-1.76 3.3-3.78a49.7 49.7 0 0 0 2.91-4.06 23.76 23.76 0 0 0 2-3.78 3.57 3.57 0 0 1-2.59-1.5 1.94 1.94 0 0 1 0-2 18.54 18.54 0 0 0-3 2.21q-1.63 1.44-3.26 3.2a43.24 43.24 0 0 0-3.07 3.71 36.37 36.37 0 0 0-2.46 3.78 13.82 13.82 0 0 0-1.41 3.36 3.45 3.45 0 0 0 .13 2.54zM478.23 279.87a2.24 2.24 0 0 1 1.12-.29.59.59 0 0 1 .58.29.82.82 0 0 1-.22.7 4.55 4.55 0 0 1-1.22 1 22 22 0 0 1-2.14 1.12 18.27 18.27 0 0 1-2.5.93 16.11 16.11 0 0 1-2.72.54 13.15 13.15 0 0 1-2.75 0 32.12 32.12 0 0 1-1.31 4.77q-.93 2.66-2.21 5.44t-2.78 5.44a43.57 43.57 0 0 1-3.07 4.74 21 21 0 0 1-3.07 3.36 4.46 4.46 0 0 1-2.78 1.28 2 2 0 0 1-1.57-.86 6.06 6.06 0 0 1-1-2.21 13.86 13.86 0 0 1-.42-2.94 9.89 9.89 0 0 1 .32-3 21.11 21.11 0 0 1 1.28-3.36q1-2.27 2.59-5.31t3.52-6.59q2-3.55 4.06-7.14t4.29-6.94q2.17-3.36 4.13-6.08t3.55-4.54a8.4 8.4 0 0 1 2.69-2.27 2.84 2.84 0 0 1 2.5 0 3.94 3.94 0 0 1 1.7 1.82 7.24 7.24 0 0 1 .67 2.91 8.33 8.33 0 0 1-.58 3.33 7.82 7.82 0 0 1-1.76 2.4 23.55 23.55 0 0 1-3.13 2.59 35 35 0 0 1-3.9 2.37 22.79 22.79 0 0 1-4 1.66q-.51.77-1 1.57t-1 1.7a5.14 5.14 0 0 1 1.5.9 3 3 0 0 1 .93 1.41v.19a9.26 9.26 0 0 0 2.59.42 15.9 15.9 0 0 0 2.69-.16 20 20 0 0 0 2.46-.51 13.18 13.18 0 0 0 1.96-.68zm-25.34 24.19q.26.58 1.22-.35a21 21 0 0 0 2.27-2.75q1.31-1.82 2.85-4.26t2.91-4.86q1.38-2.43 2.43-4.64a24.21 24.21 0 0 0 1.44-3.55 9.77 9.77 0 0 1-1.34-.67 5.12 5.12 0 0 1-1-.74q-2.24 3.84-4.32 7.52t-3.58 6.69q-1.5 3-2.34 5.06t-.54 2.55zm26.11-42.75q-.32-.32-1.06.26a12.13 12.13 0 0 0-1.79 1.89q-1.06 1.31-2.43 3.2t-2.91 4.19a21.44 21.44 0 0 0 3.81-2.62 20.45 20.45 0 0 0 2.78-2.88 11.3 11.3 0 0 0 1.54-2.5 1.51 1.51 0 0 0 .06-1.54zM529.3 271.94a8.74 8.74 0 0 1 2-1.89q1.38-1 3-2l3.36-2q1.7-1 2.94-1.89a7.56 7.56 0 0 0 1.82-1.73 1.17 1.17 0 0 0 0-1.54q-1.09-1.28-3.65-1a30.44 30.44 0 0 0-6.27 1.57 40.05 40.05 0 0 0-6.53 3 65.59 65.59 0 0 0-6.72 4.38 79.13 79.13 0 0 0-6.4 5.28 60.76 60.76 0 0 0-5.54 5.76 42.59 42.59 0 0 0-4.16 5.86 18.73 18.73 0 0 0-2.24 5.5 8.67 8.67 0 0 0 .19 4.7 7.22 7.22 0 0 0 6.72 4.42 17.72 17.72 0 0 0 4.35-.58 29.56 29.56 0 0 0 4.54-1.57 35.72 35.72 0 0 0 4.13-2.11 19.14 19.14 0 0 0 3.1-2.27 5.12 5.12 0 0 0 1.5-2 1.05 1.05 0 0 1 1.18-1 2.72 2.72 0 0 1 1.6.93 4.42 4.42 0 0 1 1 2 2.47 2.47 0 0 1-.48 2.18 11.69 11.69 0 0 1-2.53 2.27 32.72 32.72 0 0 1-4.13 2.5 36.15 36.15 0 0 1-4.83 2 14.63 14.63 0 0 1-4.7.86 24.8 24.8 0 0 1-6.4-.8 17.7 17.7 0 0 1-5.31-2.34 13.22 13.22 0 0 1-3.74-3.71 9.94 9.94 0 0 1-1.63-4.86 11.12 11.12 0 0 1 1.18-5.22 36.51 36.51 0 0 1 4.05-6.64 62.65 62.65 0 0 1 6.18-7.23 59.59 59.59 0 0 1 8-6.82 55.83 55.83 0 0 1 9.47-5.41 38.67 38.67 0 0 1 10.43-3 20.27 20.27 0 0 1 6.08-.1 10.42 10.42 0 0 1 3.87 1.34 5 5 0 0 1 2 2.18 3.45 3.45 0 0 1-1.47 4.93q-1.83 1.57-4.26 3.36t-4.8 3.71a17.25 17.25 0 0 0-3.52 3.65 1 1 0 0 1-1.31.35 3.4 3.4 0 0 1-1.54-1.09 4.79 4.79 0 0 1-1-1.89 2.32 2.32 0 0 1 .47-2.04zM553.5 257.6a1.67 1.67 0 0 1 1.31-.13 3.9 3.9 0 0 1 1.44.67 2 2 0 0 1 .8 1.15 1.21 1.21 0 0 1-.54 1.25 18.61 18.61 0 0 0-2.08 2.21q-1.31 1.57-2.91 3.68t-3.4 4.57q-1.79 2.43-3.42 4.83t-3 4.58q-1.34 2.18-2.18 3.65a17.25 17.25 0 0 0 1.31-1.31q1.05-1.12 2.5-2.69t3.17-3.33q1.73-1.76 3.33-3.33t2.91-2.66a6.83 6.83 0 0 1 2-1.28 3.08 3.08 0 0 1 2 .13 4.84 4.84 0 0 1 1.7 1.09 4.12 4.12 0 0 1 1 1.5 1.36 1.36 0 0 1-.16 1.38q-.26.32-1.25 1.63t-2.27 3.17q-1.28 1.86-2.66 4t-2.5 4.13a31.11 31.11 0 0 0-1.76 3.49 3.27 3.27 0 0 0-.38 2.18q.06.26.93-.29a24.44 24.44 0 0 0 2.11-1.54q1.25-1 2.75-2.34l2.94-2.66q1.44-1.31 2.62-2.43t1.82-1.76a7.33 7.33 0 0 1 1.86-1.41 3.45 3.45 0 0 1 1.38-.45.37.37 0 0 1 .42.48 3.06 3.06 0 0 1-1 1.38l-1.76 1.92-2.73 2.94-3.1 3.36q-1.6 1.73-3.1 3.17t-2.69 2.4a5.27 5.27 0 0 1-1.76 1.09 2.9 2.9 0 0 1-1.82-.22 5.68 5.68 0 0 1-1.7-1.18 5.77 5.77 0 0 1-1.22-1.79 4.51 4.51 0 0 1-.38-2.11 9.35 9.35 0 0 1 1.31-3.84 45.38 45.38 0 0 1 2.88-4.61q1.63-2.3 3.23-4.29t2.43-2.88a10.47 10.47 0 0 0-2.37 1.54q-1.54 1.22-3.49 3t-4.1 4q-2.15 2.18-4.16 4.45t-3.76 4.45a45.08 45.08 0 0 0-2.82 3.9.77.77 0 0 1-.83.42 2 2 0 0 1-1-.54 3.2 3.2 0 0 1-.77-1.15 2.13 2.13 0 0 1-.1-1.41 17.19 17.19 0 0 1 .93-1.89q.86-1.63 2.27-4.1t3.23-5.54q1.82-3.07 3.78-6.27t3.94-6.3q2-3.1 3.71-5.63t3.07-4.26a10.38 10.38 0 0 1 2.09-2.17zM578.9 281.15a5.88 5.88 0 0 1 1.54-1.12 3.23 3.23 0 0 1 1.34-.42.49.49 0 0 1 .58.35 1.91 1.91 0 0 1-.77 1.18q-.58.58-1.7 1.89t-2.55 2.97q-1.44 1.63-3.07 3.42t-3.2 3.26a24.89 24.89 0 0 1-3 2.43 4.48 4.48 0 0 1-2.3 1 1.82 1.82 0 0 1-1.44-.74 6 6 0 0 1-1-1.79 10.81 10.81 0 0 1-.54-2.14 13 13 0 0 1-.16-1.86 8 8 0 0 1 1-3.26 33.29 33.29 0 0 1 2.24-3.68q1.31-1.89 2.75-3.84a43.46 43.46 0 0 0 2.53-3.81 9.63 9.63 0 0 0-1.92.19l-.26.06q-.32.51-2.11 3a53.44 53.44 0 0 1-5.31 6 20.05 20.05 0 0 1-3.07 2.62 8.26 8.26 0 0 1-2 1c-.45.13-.69.08-.74-.16a1.39 1.39 0 0 1 .58-1 57.73 57.73 0 0 0 6.69-7.74q2.33-3.39 2.46-4.86a5.15 5.15 0 0 1-.64-.8 4.49 4.49 0 0 1-.51-1 4.86 4.86 0 0 1-.26-1.09 2.51 2.51 0 0 1 .06-1 2.68 2.68 0 0 1 .83-1.25 3.44 3.44 0 0 1 1.22-.67 2.68 2.68 0 0 1 1.22-.1 1.18 1.18 0 0 1 .83.48l.61.9a9.25 9.25 0 0 1 .64 1.09 4.91 4.91 0 0 1 .42 1.18 2.23 2.23 0 0 1-.06 1.18 7.84 7.84 0 0 0 1.31-.32 4.5 4.5 0 0 0 1.06-.54 10.8 10.8 0 0 0 1.09-.86q.58-.51 1.34-1.28a1 1 0 0 1 1.15-.26 2.14 2.14 0 0 1 1 .9 4 4 0 0 1 .51 1.44 1.86 1.86 0 0 1-.19 1.31q-.32.51-1.38 1.89t-2.43 3.26l-2.91 4q-1.54 2.11-2.78 4a28.64 28.64 0 0 0-2 3.36 3.17 3.17 0 0 0-.51 2q.13.38 1.31-.26a25.18 25.18 0 0 0 3.07-2.08q1.89-1.44 4.32-3.58t5.11-4.85zM593.56 281.15a4.6 4.6 0 0 1 1.47-1 3.46 3.46 0 0 1 1.25-.32.46.46 0 0 1 .54.35 1.39 1.39 0 0 1-.58 1q-.32.32-1.41 1.54t-2.62 2.85q-1.54 1.63-3.36 3.49t-3.55 3.39a34.67 34.67 0 0 1-3.2 2.56 4.61 4.61 0 0 1-2.3 1 4 4 0 0 1-1.79-.45 5.91 5.91 0 0 1-1.63-1.22 6.65 6.65 0 0 1-1.22-1.79 5.2 5.2 0 0 1-.48-2.24 8.17 8.17 0 0 1 .8-3.07 31.62 31.62 0 0 1 2-3.9q1.25-2 2.75-4.13t2.88-3.84q1.38-1.76 2.43-2.94a16.77 16.77 0 0 1 1.46-1.43 1.89 1.89 0 0 1 1.44-.22 4.37 4.37 0 0 1 1.6.64 3.31 3.31 0 0 1 1.09 1.09.88.88 0 0 1-.1 1.12q-.32.32-1.54 1.73t-2.82 3.33q-1.6 1.92-3.33 4.13t-3 4.19a27.52 27.52 0 0 0-2 3.42q-.67 1.44-.16 1.89.32.26 1.47-.35a27 27 0 0 0 2.72-1.7q1.57-1.09 3.36-2.5t3.42-2.72q1.63-1.31 2.85-2.4t1.56-1.5zm-2.62-13.63a2.06 2.06 0 0 1-.35-1.63 4.39 4.39 0 0 1 .77-1.79 7.53 7.53 0 0 1 3.46-2.62 4.15 4.15 0 0 1 2-.22 2.6 2.6 0 0 1 1.66 1 2.33 2.33 0 0 1 .52 1.74 3.26 3.26 0 0 1-.83 1.7 6.87 6.87 0 0 1-1.76 1.41 9.82 9.82 0 0 1-2.14.93 5.21 5.21 0 0 1-2 .22 1.61 1.61 0 0 1-1.33-.74zM599.9 290.24a11 11 0 0 1-3.26 4.29 12.22 12.22 0 0 1-4.35 2.27 7.57 7.57 0 0 1-4.06.1 3.31 3.31 0 0 1-2.46-4 7.38 7.38 0 0 1 .58-1.76 4.74 4.74 0 0 1 .9-1.31.79.79 0 0 1 .9-.32 1 1 0 0 1 .51.64q.13.45.32 1a3.9 3.9 0 0 0 .67 1.09 4 4 0 0 0 1.57 1 2.8 2.8 0 0 0 2.94-.45 6 6 0 0 0 2.11-2.82 4.14 4.14 0 0 0 .06-2.59 20.65 20.65 0 0 0-1-2.82q-.64-1.44-1.21-2.78a6.24 6.24 0 0 1-.58-2.43 5.66 5.66 0 0 1 .86-2.78 15.07 15.07 0 0 1 2.18-2.88 22.64 22.64 0 0 1 2.91-2.56 17.21 17.21 0 0 1 3.17-1.89 8.09 8.09 0 0 1 2.88-.77 2.62 2.62 0 0 1 2.08.7 1.91 1.91 0 0 1 .45 1.6 5.94 5.94 0 0 1-.67 2 10.1 10.1 0 0 1-1.44 2 10 10 0 0 1-1.86 1.63 19.18 19.18 0 0 1-3.07 1.73 15.4 15.4 0 0 1-3.58 1.22 6.63 6.63 0 0 0 1.09 2.11 14.1 14.1 0 0 1 1.38 2.27 8.3 8.3 0 0 1 .77 2.82 7.62 7.62 0 0 1-.79 3.69zm2.3-16.7q1.41-1.22 1.25-1.54t-1.12.16a11.36 11.36 0 0 0-2.27 1.63 11.06 11.06 0 0 0-2.27 2.82.57.57 0 0 0-.16.32 1.16 1.16 0 0 1-.1.32l1.86-1.38q1.15-.87 2.81-2.33zM609.56 266a.59.59 0 0 1-.45-.45.9.9 0 0 1 .16-.67 1.42 1.42 0 0 1 .7-.54 1.67 1.67 0 0 1 1.12 0 17.34 17.34 0 0 0 3.14.48q2 .16 4.42.22a57.22 57.22 0 0 1 3.84-4.29 17.51 17.51 0 0 1 3.26-2.69 2 2 0 0 1 1.63-.1 3.67 3.67 0 0 1 1.66 1.12 5 5 0 0 1 1.06 2.18 6 6 0 0 1-.19 3.07q2.88-.38 5.6-1a32.36 32.36 0 0 0 5-1.5q1.22-.45 1.5-.06a1.14 1.14 0 0 1-.19 1.22 7.1 7.1 0 0 1-1.57 1.76 8.91 8.91 0 0 1-2.56 1.5 21.6 21.6 0 0 1-4.93 1.12 60.39 60.39 0 0 1-6.14.42l-.13.06q-.13.06-1.31 1.06l-2.94 2.5q-1.76 1.5-3.81 3.33l-4 3.55q-1.41 2.3-2.53 4.48a28.76 28.76 0 0 0-1.73 4 12.06 12.06 0 0 0-.67 3.17 2.39 2.39 0 0 0 .64 2q.45.45 2.08-.42a33.51 33.51 0 0 0 3.84-2.46q2.21-1.6 4.67-3.71t4.51-4.16a8.46 8.46 0 0 1 1.92-1.5 2.5 2.5 0 0 1 1.34-.42.41.41 0 0 1 .35.58 3.08 3.08 0 0 1-.93 1.34q-.58.58-1.79 1.92l-2.75 3q-1.54 1.67-3.33 3.46t-3.46 3.26a27.51 27.51 0 0 1-3.14 2.43 4.83 4.83 0 0 1-2.43 1 3.12 3.12 0 0 1-2-.86 6.77 6.77 0 0 1-1.73-2.4 11.69 11.69 0 0 1-.93-3.62 12.51 12.51 0 0 1 .42-4.51 19.18 19.18 0 0 1 1.38-3.68q1-2.08 2.34-4.42t3-4.77q1.63-2.43 3.36-4.67-2.05-.25-3.87-.54a30 30 0 0 1-3.43-.79zm12.16 1.73q-2.11 2.63-4.1 5.63l5.57-5.57a3.67 3.67 0 0 0-.71-.06h-.77zm4.42-3a15 15 0 0 0 1.82-2.27 1.15 1.15 0 0 0 .22-1.06q-.26-.38-1.34.61t-2.75 2.85h1l1.04-.16zM632.53 270.21a2.18 2.18 0 0 1 1.28-.45 4.27 4.27 0 0 1 1.57.16 2.75 2.75 0 0 1 1.15.64.68.68 0 0 1 0 1q-.51.71-1.63 2.08t-2.43 3.2q-1.31 1.82-2.69 3.94t-2.46 4.16l2-2.46q1.18-1.44 2.5-3t2.66-3q1.34-1.5 2.56-2.72t2.18-2a4.33 4.33 0 0 1 1.47-1 1.55 1.55 0 0 1 1.41.32 3.65 3.65 0 0 1 1 1.34 7.3 7.3 0 0 1 .54 1.66 2.28 2.28 0 0 1 0 1.28 20.48 20.48 0 0 1-1.22 2q-1 1.6-2.24 3.39-1.41 2.11-3.07 4.54 3.71-4.22 6.78-7.62 1.28-1.41 2.59-2.82l2.4-2.56q1.09-1.15 1.89-1.89a5 5 0 0 1 1.12-.86 1.25 1.25 0 0 1 1.28.22 4.21 4.21 0 0 1 1.6 3 2.38 2.38 0 0 1-.38 1.57q-.45.58-1.41 2t-2.11 3.23q-1.15 1.82-2.34 3.81t-2.08 3.71q-.9 1.73-1.37 2.94t-.22 1.47a1.16 1.16 0 0 0 1.06-.35q.86-.54 2.11-1.47t2.72-2.14l2.88-2.4q1.41-1.18 2.59-2.27t1.82-1.73a8.1 8.1 0 0 1 1.86-1.44 2.87 2.87 0 0 1 1.38-.45.4.4 0 0 1 .42.51 3.06 3.06 0 0 1-1 1.38q-.58.58-1.76 1.89l-2.69 3q-1.5 1.67-3.14 3.42t-3.11 3.23a33.45 33.45 0 0 1-2.69 2.4 3.6 3.6 0 0 1-1.7.93 3.31 3.31 0 0 1-1.7-.51 5.69 5.69 0 0 1-1.54-1.34 5.45 5.45 0 0 1-1-1.92 4.7 4.7 0 0 1-.13-2.18 12.46 12.46 0 0 1 1.44-3.58 30.76 30.76 0 0 1 2.4-3.65q1.41-2 3.14-4a10.42 10.42 0 0 0-1.86 1.28q-1.28 1-2.91 2.53t-3.45 3.26q-1.79 1.73-3.39 3.36t-2.82 3a23.76 23.76 0 0 0-1.66 2q-.77 1-1.31.83a1.45 1.45 0 0 1-.83-.9 5.25 5.25 0 0 1-.35-1.63 2.39 2.39 0 0 1 .26-1.44q.19-.32.83-1.22t1.5-2.14l1.89-2.72q1-1.47 2-2.85t1.7-2.56l1.18-1.92q-2.5 2.11-5.28 4.74t-5.28 5.15q-2.5 2.53-4.38 4.7a31.38 31.38 0 0 0-2.66 3.39.7.7 0 0 1-.86.35 2.11 2.11 0 0 1-1-.67 3.81 3.81 0 0 1-.71-1.22 1.64 1.64 0 0 1 .06-1.34q.19-.38 1.06-2l2.08-3.94q1.22-2.3 2.72-4.93t2.94-5q1.44-2.37 2.72-4.19a14.1 14.1 0 0 1 2.12-2.53zM677.59 278.91q-1.73 2.69-3.14 4.83t-2.3 3.65a14.75 14.75 0 0 0-1.22 2.4q-.32.9.06 1.09t1.82-.86q1.37-1.12 3.1-2.75t3.39-3.36q1.66-1.73 2.69-2.75a8.26 8.26 0 0 1 1.73-1.34 3.61 3.61 0 0 1 1.44-.54c.36 0 .53.12.51.42a3.3 3.3 0 0 1-1 1.47q-1.41 1.41-3.39 3.78l-3.94 4.7q-2 2.34-3.55 4.1a6.89 6.89 0 0 1-2.3 2 2.49 2.49 0 0 1-1.76 0 3.5 3.5 0 0 1-1.38-1 4.09 4.09 0 0 1-.83-1.6 4.68 4.68 0 0 1-.13-1.89 6.1 6.1 0 0 1 .51-1.82q.45-1.06 1-2.11l1.09-2q.51-.93.83-1.44a14.71 14.71 0 0 1-1.09 1.5q-.83 1.06-2 2.4t-2.59 2.82a35.69 35.69 0 0 1-2.82 2.66 23.79 23.79 0 0 1-2.69 2 4.34 4.34 0 0 1-2.18.8 3 3 0 0 1-2-.8 6.52 6.52 0 0 1-1.54-2 9.33 9.33 0 0 1-.86-2.53 4.85 4.85 0 0 1 .06-2.37 11.64 11.64 0 0 1 1.7-3.14q1.38-2 3.29-4.26t4.19-4.58q2.27-2.3 4.45-4.13a25 25 0 0 1 4.06-2.85 4.66 4.66 0 0 1 3-.77 2.45 2.45 0 0 1 1 .77 5.87 5.87 0 0 1 1 1.6 7.46 7.46 0 0 1 .54 2.18 5 5 0 0 1-.32 2.37 3.51 3.51 0 0 1 1.41 1.57 1.75 1.75 0 0 1 .16 1.78zm-3.52-5.63q-.77-.38-2.43.61a25.08 25.08 0 0 0-3.71 2.82q-2 1.82-4.22 4.1a55.43 55.43 0 0 0-3.81 4.38 28.41 28.41 0 0 0-2.53 3.78q-.89 1.67-.38 2.24t2.08-.35a24.18 24.18 0 0 0 3.87-2.91q2.24-2 4.83-4.7t5-5.73a22.23 22.23 0 0 0 1.25-2.78q.43-1.2.05-1.46zM688.34 290.24a11 11 0 0 1-3.26 4.29 12.24 12.24 0 0 1-4.35 2.27 7.57 7.57 0 0 1-4.06.1 3.32 3.32 0 0 1-2.4-2.24 3.36 3.36 0 0 1-.06-1.73 7.47 7.47 0 0 1 .58-1.76 4.74 4.74 0 0 1 .9-1.31.79.79 0 0 1 .9-.32 1 1 0 0 1 .51.64c.09.3.19.62.32 1a3.83 3.83 0 0 0 .67 1.09 4 4 0 0 0 1.57 1 2.8 2.8 0 0 0 2.94-.45 6 6 0 0 0 2.11-2.82 4.13 4.13 0 0 0 .06-2.59 20.64 20.64 0 0 0-1-2.82q-.64-1.44-1.22-2.78a6.25 6.25 0 0 1-.58-2.43 5.67 5.67 0 0 1 .86-2.78 15.08 15.08 0 0 1 2.17-2.9 22.38 22.38 0 0 1 2.91-2.56 17.14 17.14 0 0 1 3.17-1.89 8.08 8.08 0 0 1 2.88-.77 2.62 2.62 0 0 1 2.08.7 1.9 1.9 0 0 1 .45 1.6 5.92 5.92 0 0 1-.67 2 10 10 0 0 1-1.44 2 9.91 9.91 0 0 1-1.86 1.63 19.14 19.14 0 0 1-3.07 1.73 15.38 15.38 0 0 1-3.58 1.22 6.63 6.63 0 0 0 1.09 2.11 14.11 14.11 0 0 1 1.38 2.27 8.35 8.35 0 0 1 .77 2.82 7.64 7.64 0 0 1-.77 3.68zm2.3-16.7q1.41-1.22 1.25-1.54t-1.12.16a11.39 11.39 0 0 0-2.27 1.63 11 11 0 0 0-2.27 2.82.56.56 0 0 0-.16.32 1.2 1.2 0 0 1-.1.32l1.86-1.38q1.17-.87 2.82-2.33z" transform="translate(-228.95 -257.02)"/></svg>