<svg xmlns="http://www.w3.org/2000/svg" width="583" height="142" viewBox="0 0 583 142"><path fill="#FFEA00" fill-rule="evenodd" d="M115.14 31.181c2.051-.149 3.076.689 3.076 2.515 0 2.461-.796 5.595-2.388 9.402.225.384.337.835.337 1.352-1.816 4.507-4.097 9.341-6.841 14.502-2.48 5.884-4.756 9.355-6.826 10.414 0 .332-.342.699-1.025 1.1l-.352.026-.674-.288c0 .908-.229 1.379-.688 1.412l-.337.025.337-.698v-.688l-.688.387-1.025.075v-1.025l-.674.401-1.714.125c0-1.143-.571-2.585-1.714-4.328-.684-1.161-1.138-3.862-1.362-8.104-1.006-4.028-1.689-6.029-2.051-6.003-2.734 2.709-4.443 4.997-5.127 6.863-4.561 6.475-8.32 9.942-11.279 10.402 0-.742-1.025-1.351-3.076-1.827l-.688-2.001c1.826-10.533 3.081-17.007 3.765-19.42l-.352-2.362 2.402-7.704 3.75-.273c.166 1.355.396 2.022.688 2.001-.225 2.067-.454 3.109-.688 3.126l.352.663v1.025c-1.143 3.902-2.51 9.924-4.102 18.067l14.019-15.714.674-.386 2.402-.175c2.52-.184 4.229 2.88 5.127 9.192 0 .498-.342 1.661-1.025 3.488l.337 2.378.688-.05c0-1.768.908-3.543 2.725-5.325 4.199-9.427 7.275-14.212 9.229-14.354 0-.684.117-1.034.352-1.051-.234-.422-.352-.756-.352-1 .059-.795 1.655-2.85 4.79-6.164zm21.172-12.909l.688-.05c.537-.039 1.221 1.62 2.051 4.978v.688c0 1.182-.342 1.89-1.025 2.125l-2.739.2-.674-.288c0 1.416-3.989 3.416-11.968 5.999-1.719-.48-2.632-.985-2.739-1.514.684-3.243 1.367-4.89 2.051-4.939l-.337-.649v-2.051c0-.83 3.989-2.146 11.968-3.948l.674.288c.752-.514 1.436-.793 2.051-.838zm-12.056 14.648l.688-.05c2.734.397 4.102 1.664 4.102 3.803-.234.457-.352.807-.352 1.051l.352.663c-.869 2.593-2.695 6.827-5.479 12.704-.225.456-.337.806-.337 1.05l-.688-.301c0 1.279-1.479 3.897-4.438 7.853 0 .811-1.367 2.731-4.102 5.763-.127 1.289-2.407 4.077-6.841 8.365v-.337l5.464-12.366c1.826-6.207 3.193-10.067 4.102-11.578 0-.234-.112-.343-.337-.327 0-.508.684-2.95 2.051-7.327l-.337-.649c.635-2.331 1.772-4.123 3.413-5.376.459-1.86 1.372-2.839 2.739-2.939zm44.258-14.503l.337 2.026c-.684 3.692-1.479 6.714-2.388 9.066.225.423.337.757.337 1.001l-.337.025.337.649c-.967 3.205-1.88 5.664-2.739 7.377l.352.663v2.051c0 1.084-.571 2.263-1.714 3.538.225.433.337.766.337 1.001-.225.016-.337.142-.337.376l.688-.05c0 1.807-1.255 4.745-3.765 8.814l-3.765 5.401c-.127 1.357-1.152 2.916-3.076 4.677l-1.362.099c0-.322-1.138-1.152-3.413-2.491-2.051-2.067-3.076-3.36-3.076-3.877 0-1.426-.913-3.64-2.739-6.641-.674-2.187-1.587-4.172-2.739-5.953 0-.615-1.25-3.146-3.75-7.593-1.68 1.714-3.052 5.232-4.116 10.554l-.674.738c0 .225.112.329.337.312l-3.765 14.293-2.725 2.938-.688.05c-2.129.155-3.496-.658-4.102-2.44l.337-.698-.337-.664c.752-2.779 2.231-6.305 4.438-10.577.332-.18 2.041-4.182 5.127-12.004 1.748-5.596 3.804-8.48 6.167-8.652 0-.166.566-.549 1.699-1.149.234-.017.352.092.352.326l.674-.401c2.734 1.939 4.102 3.095 4.102 3.466 1.025.843 2.051 3.503 3.076 7.979.498.774 1.182 2.888 2.051 6.34.713 2.682 1.284 4.008 1.714 3.977 2.959-6.593 4.78-9.914 5.464-9.963l-.337-.664v-.337c.4-2.021 1.88-4.634 4.438-7.838.801-.058 2.056-2.318 3.765-6.778.361-.104 1.387-2.23 3.076-6.376.635-.046 1.206-.884 1.714-2.513l1.025-.075zm61.402-3.111c.908.158 1.704.213 2.388.163.117-.009.576-.154 1.377-.437 1.504-.11 2.412 1.533 2.725 4.928-3.897 3.731-7.427 6.039-10.591 6.924l-14.355 8.223v.352c4.287.821 7.251 2.084 8.892 3.791l-.352.714c2.617-.191 5.469 1.311 8.555 4.504.225.423.337.757.337 1.001-.225.016-.337.137-.337.361l.674-.386c.43-.031 1.001 1.294 1.714 3.977l.688.287c-.459 3.031-1.03 5.353-1.714 6.966-1.553 2.144-3.945 3.798-7.178 4.961 0 .459-1.138 1.001-3.413 1.626l-.688-.301c-.225.016-.337.142-.337.376l-1.714-.227c-4.541.565-7.617.906-9.229 1.024-.244.018-.586.155-1.025.412-4.033-.78-6.885-2.394-8.555-4.841-.41-.058-1.548-2.143-3.413-6.255-.225.016-.566-1.668-1.025-5.052 0-2.5.684-4.601 2.051-6.302l.337-.025.352 2.362c-.234.017-.352.143-.352.377.391-.028 1.074 1.401 2.051 4.289 1.885 2.646 3.711 4.11 5.479 4.391 0 .625 2.505 1.58 7.515 2.866v-.688l2.051-.149c1.484-.108 4.219-1.103 8.203-2.985l.688.287c1.826-1.08 2.739-2.172 2.739-3.276-.938-2.197-3.105-3.973-6.504-5.327-1.25.091-4.438-1.161-9.565-3.756-2.285-.664-3.428-1.718-3.428-3.163v-1.025c0-3.193 3.989-6.672 11.968-10.437 1.143-.083 2.397-1.088 3.765-3.013l3.076-1.249v-.352l-1.714-.212-1.025.075c0 .459-.112.697-.337.713-3.867.282-8.428 1.068-13.682 2.359l-1.699-.213c-2.539.41-4.819.688-6.841.835l-2.051.149c-1.123-.514-1.694-.926-1.714-1.237v-1.714c0-.781 3.193-1.81 9.58-3.086l1.025-.075 1.362.238c.41-.03 2.349-.513 5.815-1.449.225-.016.337.088.337.312l1.714-.462.337-.025c.684-.05 1.025.038 1.025.262l14.019-2.383zm63.614-2.583l-.337.713.337-.025c.439-.266.781-.408 1.025-.426l.688.301c.439-.266.781-.408 1.025-.426l.337.664.688-.387 1.362-.099c2.051.456 3.076 1.519 3.076 3.189 0 1.143-.342 1.739-1.025 1.789v.337c0 .459.342.664 1.025.614v.337c-.625.046-1.079.42-1.362 1.125-2.754.66-4.922 1.047-6.504 1.162 0 1.367-.454 2.084-1.362 2.15 0 .322-1.226 4.074-3.677 11.254 0 .371-.684.875-2.051 1.512-.771 3.503-1.611 5.518-2.52 6.043-2.93 4.276-5.542 9.671-7.837 16.186-1.367.695-2.051 1.316-2.051 1.863l-.688.05c0-1.27 1.128-6.562 3.384-15.876l-.337-.649v-.688c1.23-4.689 1.846-7.141 1.846-7.356l-.352-.663c0-.41.659-3.774 1.978-10.09l-1.362.099c-1.309.095-2.109.036-2.402-.177-1.23.324-2.256.516-3.076.576l-1.362.099c-.762.055-1.333-.02-1.714-.227l-2.051.501-3.413.249c-2.285-1.289-3.428-2.919-3.428-4.892-.225.016-.337-.317-.337-1.001 1.592-1.678 2.388-2.762 2.388-3.25-.225.016-.337-.088-.337-.312.342-.025 1.597-.458 3.765-1.3 2.393-.399 5.01-.702 7.852-.909l1.714-.125c.947-.069 2.202-.048 3.765.063.381-.252.952-.406 1.714-.462.068.444.293.652.674.625l.352-.026c2.412-.859 5.942-1.571 10.591-2.134zm26.094-7.804l.688-.05c.537-.039 1.221 1.62 2.051 4.978v.688c0 1.182-.342 1.89-1.025 2.125l-2.739.2-.674-.288c0 1.416-3.989 3.416-11.968 5.999-1.719-.48-2.632-.985-2.739-1.514.684-3.243 1.367-4.89 2.051-4.939l-.337-.649v-2.051c0-.83 3.989-2.146 11.968-3.948l.674.288c.752-.514 1.436-.793 2.051-.838zm-12.056 14.648l.688-.05c2.734.397 4.102 1.664 4.102 3.803-.234.457-.352.807-.352 1.051l.352.663c-.869 2.593-2.695 6.827-5.479 12.704-.225.456-.337.806-.337 1.05l-.688-.301c0 1.279-1.479 3.897-4.438 7.853 0 .811-1.367 2.731-4.102 5.763-.127 1.289-2.407 4.077-6.841 8.365v-.337l5.464-12.366c1.826-6.207 3.193-10.067 4.102-11.578 0-.234-.112-.343-.337-.327 0-.508.684-2.95 2.051-7.327l-.337-.649c.635-2.331 1.772-4.123 3.413-5.376.459-1.86 1.372-2.839 2.739-2.939zm30.518-1.974l.674-.049c0 .459 1.025.838 3.076 1.138.684 1.581 1.025 2.469 1.025 2.665-.049.716-.845 1.458-2.388 2.225 0 .986-1.138 1.753-3.413 2.299-6.24 3.189-9.434 4.789-9.58 4.799 0-.225-.112-.329-.337-.312 0 .264-1.938 1.43-5.815 3.5 0-.225-.112-.329-.337-.312 0 .371-.571.979-1.714 1.824 0 .674-.454 1.278-1.362 1.813l.337.664v.337c-.459 2.28-.688 3.551-.688 3.815 1.152 1.928 3.662 3.224 7.529 3.89l3.076.464 2.739-.2c.84-.061 3.574-.602 8.203-1.623v.337c.742-.513 1.309-.784 1.699-.812v.352l2.402-1.552.674.302 6.152-4.213c.078-.465.308-.711.688-.739l.337-.025c-.625 2.663-2.104 5.28-4.438 7.853l-1.714 2.513c0 .605-1.367 1.618-4.102 3.038 0 .684-.908 1.433-2.725 2.249 0 .596-.913 1.116-2.739 1.562-1.23-.135-2.256-.173-3.076-.113l-.688.05c0 .684-.225 1.042-.674 1.074l-3.076.224c-.508-.373-1.65-.632-3.428-.776-.4.254-.854.399-1.362.436l-.337.025c-.234.017-.352-.087-.352-.311l-.688.387c-2.959-.175-4.438-.521-4.438-1.039.225-.456.337-.806.337-1.05-.664-.704-2.031-1.405-4.102-2.104-1.738-1.465-3.218-2.266-4.438-2.401l-2.051-4.978c0-.234.112-.36.337-.376l-.337-1.675v-2.051c1.621-3.536 2.534-5.312 2.739-5.326 1.348-.772 3.965-2.901 7.852-6.387l5.479-3.812c5.039-3.687 7.886-5.609 8.54-5.764 3.135-1.137 5.303-1.749 6.504-1.836zm27.046-5.647c1.445.354 2.7 1.293 3.765 2.817v.674l-.688 1.764.688-.387.337-.025v.337c0 1.172-.796 3.622-2.388 7.352 3.555-1.763 7.197-4.079 10.928-6.948 4.004-2.401 7.31-3.78 9.917-4.135l1.362-.099c1.602.606 2.402 1.573 2.402 2.901-.459.102-.688.343-.688.724v1.714c-1.104.08-2.017.83-2.739 2.25-2.568 1.31-4.961 2.398-7.178 3.262 0-.234-.112-.343-.337-.327 0 .596-.913 1.121-2.739 1.576v-.352c-1.221.86-3.042 1.677-5.464 2.449v-.337c-3.223 1.123-6.187 2.707-8.892 4.749.781.9 2.607 2.134 5.479 3.702 4.326 3.24 6.489 5.02 6.489 5.343.918 1.75 2.627 3.334 5.127 4.753v1.025l.688-.387c.693-.051 3.198 1.247 7.515 3.891.4.195.854.275 1.362.238 0 .234-.112.36-.337.376l.337.649v.688c0 .342-.454.717-1.362 1.125-2.832-.165-4.541-.494-5.127-.989l-.688.387c-3.418-1.343-5.127-2.244-5.127-2.703-.234.017-.576.154-1.025.412-1.201.029-2.91-.642-5.127-2.014l-.674.049v.688c-.928.068-5.146-2.247-12.656-6.944 0-.322-.684-.956-2.051-1.901l-4.102 4.737-.688.05c-.352.026-.806-.395-1.362-1.263v-1.025c0-.479.913-2.825 2.739-7.04 0-.84.796-3.061 2.388-6.663 1.592-9.003 3.301-13.571 5.127-13.704 0-.918.571-1.76 1.714-2.527l.337-.025.688.287c0-.449.684-.841 2.051-1.175zm54.395-6.687v.337l.688-.387 1.025-.075v.674c.439-.257.781-.394 1.025-.412 1.191.138 1.875.2 2.051.188l.674-.386c.244-.018.586.07 1.025.262 1.563-.338 2.817-.542 3.765-.611l2.051.188 2.051-.823c.742.395 1.313.578 1.714.549v1.377c0 1.172-2.734 2.738-8.203 4.699l-3.076.913 1.699 1.239v.337c-.498.036-2.319.853-5.464 2.449-1.875.596-4.839 1.27-8.892 2.025v-1.025l-.337.025v.674l-.688.05c-3.643.265-5.464 1.653-5.464 4.163-.4.029-.63.617-.688 1.764 1.943.083 3.428.087 4.453.013 2.129-.839 4.062-1.321 5.801-1.448l1.025-.075c.518-.038.977.041 1.377.237.225-.016.337-.137.337-.361l1.714.212 2.388-.511c.225.423.337.757.337 1.001.146-.011 1.631-.006 4.453.013l.674-.386c3.574.277 5.513.59 5.815.939l1.714-.125c.908-.066 2.388.056 4.438.365 0 .459-2.622 1.675-7.866 3.649-1.104.764-4.18 1.901-9.229 3.412l-2.388.174-2.051 1.849-3.765.274c-.215.016-1.123.311-2.725.887-1.318.096-3.145.117-5.479.062l-1.714.462c-.391-.196-.845-.275-1.362-.238v.337c0 1.611-.454 3.695-1.362 6.252l.337-.025c.459.035.688.248.688.638-.674.498-1.011 1.006-1.011 1.524 4.805-.936 7.314-1.412 7.529-1.427.811-.059 1.948-.484 3.413-1.274.488-.036 1.743-.01 3.765.077.684-.05 1.025-.421 1.025-1.115l.337-.025.688.301v-.688l7.5-.913 4.102.038v.688l-.352.714c.225-.016 1.367 1.082 3.428 3.295v2.402c-1.826 1.237-2.739 2.328-2.739 3.276l-.337.025c-1.133.083-3.643.607-7.529 1.574-.225.016-.337-.093-.337-.327l-3.413.6-3.765.274c-.225.016-.337-.093-.337-.327l-.688.402-.337.025c-.459.033-.688-.179-.688-.638l-6.841 1.187c0-.41-.342-.727-1.025-.951-1.592 1.024-2.729 1.561-3.413 1.611l-1.025.075c-.234.017-.352-.087-.352-.311-1.191.77-3.354 1.382-6.489 1.835-1.035-1.136-2.061-3.224-3.076-6.265 0-.449.229-1.267.688-2.452-.234-.422-.352-.756-.352-1 .42-2.394 2.588-6.995 6.504-13.804.41-2.081.752-3.131 1.025-3.151l-.352-.663v-.337c1.025-.075 2.051-2.43 3.076-7.065.615-.045 1.187-1.678 1.714-4.9l.337-.025-.337-.664c0-.527 1.709-1.907 5.127-4.138 7.236-2.119 11.226-3.205 11.968-3.259zm48.653-5.258l-.337.713.337-.025c.439-.266.781-.408 1.025-.426l.688.301c.439-.266.781-.408 1.025-.426l.337.664.688-.387 1.362-.099c2.051.456 3.076 1.519 3.076 3.189 0 1.143-.342 1.739-1.025 1.789v.337c0 .459.342.664 1.025.614v.337c-.625.046-1.079.42-1.362 1.125-2.754.66-4.922 1.047-6.504 1.162 0 1.367-.454 2.084-1.362 2.15 0 .322-1.226 4.074-3.677 11.254 0 .371-.684.875-2.051 1.512-.771 3.503-1.611 5.518-2.52 6.043-2.93 4.276-5.542 9.671-7.837 16.186-1.367.695-2.051 1.316-2.051 1.863l-.688.05c0-1.27 1.128-6.562 3.384-15.876l-.337-.649v-.688c1.23-4.689 1.846-7.141 1.846-7.356l-.352-.663c0-.41.659-3.774 1.978-10.09l-1.362.099c-1.309.095-2.109.036-2.402-.177-1.23.324-2.256.516-3.076.576l-1.362.099c-.762.055-1.333-.02-1.714-.227l-2.051.501-3.413.249c-2.285-1.289-3.428-2.919-3.428-4.892-.225.016-.337-.317-.337-1.001 1.592-1.678 2.388-2.762 2.388-3.25-.225.016-.337-.088-.337-.312.342-.025 1.597-.458 3.765-1.3 2.393-.399 5.01-.702 7.852-.909l1.714-.125c.947-.069 2.202-.048 3.765.063.381-.252.952-.406 1.714-.462.068.444.293.652.674.625l.352-.026c2.412-.859 5.942-1.571 10.591-2.134zm28.115 2.303c3.652-.266 5.479.055 5.479.963 0 .234.684.414 2.051.539l.337-.713c-1.143-.073-1.714-.373-1.714-.901l.688-.05c.986-.072 1.899.433 2.739 1.514l.337-.025v.337l-.688.05 1.377 1.95v1.714c0 1.494-1.597 3.095-4.79 4.802-2.51.007-3.765-.243-3.765-.751v-1.025c.674-.049 1.245-.55 1.714-1.502-2.51.183-3.765-.068-3.765-.751l-3.413.6-1.714.125-2.051-.202c-.303.022-1.211.772-2.725 2.249 3.867 3.351 5.801 5.149 5.801 5.393 0 .586 1.367 1.624 4.102 3.114 1.621 1.347 4.131 2.873 7.529 4.578 0 .234.112.343.337.327v-.688l.337-.025c1.367 2.176 2.051 4.064 2.051 5.666v1.025l.688-.402.337-.025v.352c-.586 1.82-1.953 3.399-4.102 4.737l.352.663v.674c-3.457 2.4-7.788 4.2-12.993 5.4l-.688-.287c-1.25.316-2.158.494-2.725.535-2.363.172-5.215-.191-8.555-1.091-.4.264-.854.414-1.362.451-2.217.161-5.635-1.987-10.254-6.445-1.611-.976-3.55-3.34-5.815-7.091l.337-.025c4.395 2.414 6.675 3.615 6.841 3.603.068-.464.298-.71.688-.739l2.388 1.203c.439-.266.781-.408 1.025-.426 1.592.421 2.388.705 2.388.851.449-.257.791-.395 1.025-.412l.688.287c.439-.257.781-.394 1.025-.412v.337l.688-.387c.508-.037.962.042 1.362.238l.688-.387c.195-.014 2.017.195 5.464.627.078-.465.308-.711.688-.739l2.051-.149c5.244-.9 7.866-1.886 7.866-2.961.322-.023.664-.39 1.025-1.1-4.688-2.168-7.31-3.232-7.866-3.192-4.014-.489-6.748-1.657-8.203-3.504-3.652-2.693-5.479-5.065-5.479-7.116.596-.043 1.396.24 2.402.85l-.337-1.338c0-1.504.684-3.38 2.051-5.628.225-.016.337.088.337.312 1.943-1.509 5.815-2.929 11.616-4.259 1.084-.704 2.451-1.145 4.102-1.324zm-474.078 99.39c.13.186.985.221 2.563.106l-.281.582 2.283-.166c8.358-.072 12.537.291 12.537 1.089-7.105 3.553-11.951 5.424-14.539 5.612v.293l.854-.062v.281c0 .382-.187.587-.562.615l-2.002.146-2.844-.086c0 .382-1.803.99-5.408 1.822-1.717.003-2.576-.126-2.576-.386-.944.069-1.514 1.441-1.709 4.116-.374.084-.562.289-.562.615v.562c4.378.064 6.942.068 7.69.014l1.709-.405c.57.146.854.312.854.499.366-.214.651-.328.854-.343.993.351 3.08.577 6.262.679-2.271 2.306-4.167 3.966-5.688 4.98 0 .464-1.237.932-3.711 1.406l.293.552c0 .342-.854.689-2.563 1.041l-.574-.251c-1.945.337-3.467.546-4.565.626l-1.135.083v-.854l-.281.02c0 .374-.285.582-.854.624v.574c-1.457 8.464-2.979 12.754-4.565 12.869v.281l-.281.02v-.562c-.464.408-.842.623-1.135.644-1.294-.663-2.055-.986-2.283-.969v-3.418c0-.195.094-.3.281-.313 0-.187-.094-.274-.281-.26 1.099-4.45 1.953-6.697 2.563-6.742 0-.993.948-3.341 2.844-7.043l3.418-11.919c.765-.349 1.147-.665 1.147-.95v-.854l-.574.042v-.562c.57-.041.854-.253.854-.636l-.574.042v-.281c2.01-1.286 3.247-1.946 3.711-1.979 0-.195.57-.334 1.709-.417 1.351.097 2.112.139 2.283.127 0-.505 1.611-1.004 4.834-1.5zm24.995 1.597c.187-.014.281.077.281.273l.574-.335.562-.041c2.091.58 3.137 1.074 3.137 1.48v1.428c-.228.017-1.082.746-2.563 2.189-4.94 2.289-7.41 3.51-7.41 3.665-2.36 1.897-4.354 4.134-5.981 6.71l.281.541c-.374 2.688-.753 4.047-1.135 4.074 0 4.159 2.376 6.927 7.129 8.306 1.896.293 2.844.607 2.844.94l2.844-.488.574-.042c.423-.031.802.035 1.135.198 2.588-.189 4.582-2.234 5.981-6.136v-2.563c-1.416-2.363-2.649-3.506-3.699-3.429v-.854l.281-.02.574.239v-.281c-4.004-1.043-6.091-1.558-6.262-1.546-2.108.723-4.008 1.623-5.701 2.698 2.157-4.145 4.626-6.318 7.41-6.521 0-.757 1.233-1.225 3.699-1.405l1.428.177v-.854c1.807-.132 3.703.585 5.688 2.149 2.205 1.028 3.821 2.712 4.846 5.055 0 .431-.094.821-.281 1.168.757 1.304 1.135 2.7 1.135 4.19v3.699l-1.135.083-1.428 3.241.281.553c-1.164 2.469-2.873 4.49-5.127 6.062-2.938 1.736-4.74 2.628-5.408 2.677l-2.844-.074c-.7.425-1.461.668-2.283.728-6.193.451-11.89-1.982-17.09-7.3-1.237-1.098-2.189-3.022-2.856-5.773v-1.135l.574-.042v-.293c-.309.023-.594-.144-.854-.499l.281-1.449v-1.99c0-1.904.285-2.877.854-2.919 1.652-4.8 3.931-8.099 6.836-9.897 2.311-1.902 4.594-3.207 6.848-3.917 1.904-1.661 3.898-2.567 5.981-2.718zm33.821-6.443c2.848.159 4.272.718 4.272 1.679.741 1.085 1.404 1.607 1.99 1.564l-.562 1.176c3.931.283 7.349.893 10.254 1.829l1.135 1.626v1.99l.574-.042v.574l-1.428 2.375.281-.02c0-.187.098-.288.293-.302v.281c-.952 2.348-2.189 3.577-3.711 3.688-2.091 1.259-5.509 2.932-10.254 5.019-1.465 1.246-2.507 1.892-3.125 1.937 0 1.538 1.518 3.043 4.553 4.515v.281l-.854.062v.293c2.58.951 4.097 1.411 4.553 1.377.293-.021 1.054.493 2.283 1.543v1.709c-.757.739-1.135 1.242-1.135 1.511l-2.856.208-5.688-1.014c0 .382-.098.581-.293.595-1.107.081-2.625-.57-4.553-1.951-.659.048-2.083-1.085-4.272-3.4l-.293.021c-.732 1.705-3.105 4.824-7.117 9.356-.895 1.392-1.941 2.131-3.137 2.218v-.281c-.187-.32-.281-.692-.281-1.115.521-1.788 1.567-4.049 3.137-6.784.944-1.794 2.462-5.607 4.553-11.44.757-.055 1.42-1.812 1.99-5.272.244-.197.911-1.67 2.002-4.418-1.603.117-3.027-.447-4.272-1.691v-.281c.757-.698 1.135-1.389 1.135-2.072 1.172-.85 3.642-1.889 7.41-3.115 0-.675 1.139-2.085 3.418-4.228zm2.563 9.786l.281.541v.293c-1.595 2.411-3.019 5.265-4.272 8.563 3.068-1.688 5.253-3.08 6.555-4.176 2.661-1.651 4.94-3.526 6.836-5.625v-.281c0-.334-1.046-.64-3.137-.919-.187.014-.281.118-.281.313l-1.99-.148c-1.147.084-2.478.563-3.992 1.438zm56.631-11.254c.952.622 1.428 1.157 1.428 1.605 0 .187-.094.288-.281.301l.281 1.408v.293c0 .269-.57 1.828-1.709 4.678-.301.022-1.156 1.602-2.563 4.74-2.018 3.923-3.727 6.802-5.127 8.638 0 .431-.476 1.32-1.428 2.668 0 .521-1.424 3.664-4.272 9.43 0 .667-.663 1.477-1.99 2.428v.281l-.293.021v-.854l-.562.322-.574.042c-1.522-.516-2.283-.932-2.283-1.25v-1.147c1.522-3.57 2.283-5.712 2.283-6.428 2.059-3.641 3.861-7.475 5.408-11.502 1.571-2.784 2.523-4.375 2.856-4.774v-.281c-2.816.205-6.425-.671-10.828-2.629 0-2.661.663-4.04 1.99-4.137l.574-.042c1.685.064 2.73.082 3.137.052l2.844-.769c1.001.114 1.949.139 2.844.074 0-.952 1.9-1.567 5.701-1.843 1.017-.831 1.872-1.272 2.563-1.322zm36.197-1.465c.057.378.248.556.574.532 2.083-.534 3.507-.829 4.272-.885 0 .431 2.563.814 7.69 1.149 0 .651 2.848 1.298 8.545 1.941l.574.532.562-.334c1.506-.11 2.836.554 3.992 1.992.708-.052 1.278.098 1.709.449v-.574c.83-.06 1.306 1.52 1.428 4.742-.382.085-.574.29-.574.616.57-.041.854.125.854.499-.374 1.5-2.368 4.494-5.981 8.981-1.099 1.61-2.714 3.152-4.846 4.625-3.727 3.502-7.239 5.374-10.535 5.614-1.847 1.087-3.365 1.673-4.553 1.76-.334.024-.903-.125-1.709-.449-.781.439-1.351.672-1.709.698-1.896-.057-3.324-.051-4.285.019-.578 1.759-1.241 2.666-1.99 2.721-.757-.23-1.135-.491-1.135-.784v-2.271c-1.318.096-3.503-.221-6.555-.951v-.281c4.94-.36 7.41-1.016 7.41-1.968 0-.667.187-1.535.562-2.604l-.281-1.408c.382-3.617.952-7.361 1.709-11.233l-.281-.541c0-.13.472-1.589 1.416-4.376l-.562.041c-.431.031-.814.153-1.147.364-.814-.453-2.14-.833-3.979-1.138 0 .187-.098.288-.293.302 0-.61-1.042-.913-3.125-.908v-.854c.252-.645 1.009-1.27 2.271-1.874 0-.602 1.615-1.481 4.846-2.636l.854-.062v-.562l.281-.02.574.239v-.574l1.428-.104 1.99-.426zm8.838 6.473c0 .382-.191.588-.574.616l-3.699.269c-.382.085-.574.29-.574.616v.281c0 .431.094.807.281 1.127-1.139 2.899-2.087 5.625-2.844 8.178-.757.055-1.135.844-1.135 2.365-.618 2.088-1.286 3.654-2.002 4.699-.57 1.295-.854 2.17-.854 2.626v.574l.281-.02c3.621-1.509 6.091-2.926 7.41-4.251.505-.037 1.835-.988 3.992-2.854.846-.062 3.125-1.745 6.836-5.051.456-.033 1.595-1.256 3.418-3.667.757-1.194 1.135-2.077 1.135-2.646-.618-2.046-1.851-3.002-3.699-2.868-2.279-.021-3.418-.129-3.418-.325-.366.222-.651.34-.854.355-.114.008-1.347 0-3.699-.024zm42.049-13.634c.187-.014.281.077.281.273l.574-.335.854.511.854-.062c.496.9.968 2.481 1.416 4.743 1.335-.048 2.096 3.123 2.283 9.514-.269.02-.553.516-.854 1.49l-1.135.083c0 .244.472.686 1.416 1.325 0 1.327.289 1.969.867 1.927l1.416.178v.574c0 .448-.761.979-2.283 1.595l.574 4.792-.281.594.281 1.689-.281 2.877-.854.062c-.895.065-2.034-2.419-3.418-7.454 0-.57-.285-.834-.854-.792-1.904.139-4.753 1.201-8.545 3.186l-2.856.208c0 .952-.472 1.463-1.416 1.531-4.012 1.049-6.104 1.58-6.274 1.592-1.945 3.136-3.178 4.939-3.699 5.409-.285.021-1.424 1.243-3.418 3.667-1.139.213-1.709.54-1.709.979l-2.563.187c0-.488-.476-.738-1.428-.75l-1.428-1.605.293-.595c-.382.028-.574-.149-.574-.532 2.214-4.247 4.399-7.445 6.555-9.596.57-.041 1.326-.76 2.271-2.155l2.563-1.615-.281-.541c.041-.54 2.319-3.176 6.836-7.908 0-.285 1.331-1.712 3.992-4.282 0-.61.761-1.614 2.283-3.011 3.638-4.822 6.295-7.294 7.971-7.417l.574-.335zm-3.418 5.95c-2.498 3.494-5.538 8.179-9.119 14.055v.281c2.417.394 3.748.582 3.992.564.138-.01.708-.145 1.709-.405 1.554.074 2.502.196 2.844.367 1.807-.514 2.946-.788 3.418-.823v-2.283c-.382-2.536-.952-4.866-1.709-6.992-.317.023-.509-1.578-.574-4.804l-.562.041zm41.731-3.711v.574c.187-.014.281-.114.281-.301 2.474.316 3.711.983 3.711 2 .374 1.332.562 2.079.562 2.242-.334.447-.618 1.323-.854 2.626-4.622 4.691-7.088 7.625-7.397 8.803-3.703 4.355-7.121 8.685-10.254 12.991-1.359.799-3.068 2.348-5.127 4.646-.309.023-2.209 1.589-5.701 4.7-4.46 3.548-7.121 5.353-7.983 5.416 0 .382-.378.601-1.135.656v-.281c0-.496 1.994-3.588 5.981-9.274l2.283-3.303c1.709-1.695 2.563-2.99 2.563-3.885 2.091-3.277 3.137-4.969 3.137-5.075.944-.598 1.416-1.389 1.416-2.374l-3.418-2.314c-4.557-3.965-6.836-6.078-6.836-6.338 0-1.147-.378-1.694-1.135-1.638-.765-.742-1.147-1.471-1.147-2.187v-.574c.667-1.188 1.143-1.792 1.428-1.813l1.135-.083c0 .798 1.424 1.642 4.272 2.533.472 1.577 1.615 3.109 3.43 4.596.415 1.508 1.933 3.391 4.553 5.65 5.518-6.855 8.366-10.29 8.545-10.303 1.408-2.633 3.971-5.197 7.69-7.689zm57.718-4.961c1.709-.124 2.563.574 2.563 2.096 0 2.051-.663 4.663-1.99 7.835.187.32.281.696.281 1.127-1.514 3.756-3.414 7.784-5.701 12.085-2.067 4.903-3.963 7.796-5.688 8.679 0 .277-.285.582-.854.917l-.293.021-.562-.24c0 .757-.191 1.149-.574 1.177l-.281.02.281-.582v-.574l-.574.323-.854.062v-.854l-.562.334-1.428.104c0-.952-.476-2.154-1.428-3.607-.57-.968-.948-3.219-1.135-6.753-.838-3.357-1.408-5.024-1.709-5.002-2.279 2.257-3.703 4.164-4.272 5.719-3.8 5.396-6.934 8.285-9.399 8.668 0-.618-.854-1.126-2.563-1.522l-.574-1.667c1.522-8.778 2.568-14.172 3.137-16.183l-.293-1.968 2.002-6.42 3.125-.228c.138 1.129.33 1.685.574 1.667-.187 1.723-.378 2.591-.574 2.605l.293.552v.854c-.952 3.251-2.091 8.27-3.418 15.056l11.682-13.095.562-.322 2.002-.146c2.1-.153 3.524 2.4 4.272 7.66 0 .415-.285 1.384-.854 2.906l.281 1.982.574-.042c0-1.473.757-2.952 2.271-4.438 3.499-7.856 6.063-11.843 7.69-11.962 0-.57.098-.862.293-.876-.195-.352-.293-.63-.293-.833.049-.663 1.379-2.375 3.992-5.137zm30-6.739l-.281.594.281-.02c.366-.222.651-.34.854-.355l.574.251c.366-.222.651-.34.854-.355l.281.553.574-.323 1.135-.083c1.709.38 2.563 1.266 2.563 2.658 0 .952-.285 1.449-.854 1.49v.281c0 .382.285.553.854.511v.281c-.521.038-.899.35-1.135.937-2.295.55-4.102.873-5.42.969 0 1.139-.378 1.737-1.135 1.792 0 .269-1.021 3.395-3.064 9.378 0 .309-.57.729-1.709 1.26-.643 2.92-1.343 4.598-2.1 5.036-2.441 3.563-4.618 8.059-6.531 13.488-1.139.579-1.709 1.097-1.709 1.553l-.574.042c0-1.058.94-5.468 2.82-13.23l-.281-.541v-.574c1.025-3.908 1.538-5.951 1.538-6.13l-.293-.552c0-.342.549-3.145 1.648-8.409l-1.135.083c-1.091.079-1.758.03-2.002-.147-1.025.27-1.88.43-2.563.48l-1.135.083c-.635.046-1.111-.017-1.428-.189l-1.709.417-2.844.207c-1.904-1.074-2.856-2.433-2.856-4.077-.187.014-.281-.264-.281-.834 1.327-1.399 1.99-2.302 1.99-2.708-.187.014-.281-.073-.281-.26.285-.021 1.331-.382 3.137-1.083 1.994-.332 4.175-.585 6.543-.757l1.428-.104c.789-.058 1.835-.04 3.137.052.317-.21.793-.339 1.428-.385.057.37.244.544.562.521l.293-.021c2.01-.716 4.952-1.309 8.826-1.778zm21.565-1.29c.13.186.985.221 2.563.106l-.281.582 2.283-.166c8.358-.072 12.537.291 12.537 1.089-7.105 3.553-11.951 5.424-14.539 5.612v.293l.854-.062v.281c0 .382-.187.587-.562.615l-2.002.146-2.844-.086c0 .382-1.803.99-5.408 1.822-1.717.003-2.576-.126-2.576-.386-.944.069-1.514 1.441-1.709 4.116-.374.084-.562.289-.562.615v.562c4.378.064 6.942.068 7.69.014l1.709-.405c.57.146.854.312.854.499.366-.214.651-.328.854-.343.993.351 3.08.577 6.262.679-2.271 2.306-4.167 3.966-5.688 4.98 0 .464-1.237.932-3.711 1.406l.293.552c0 .342-.854.689-2.563 1.041l-.574-.251c-1.945.337-3.467.546-4.565.626l-1.135.083v-.854l-.281.02c0 .374-.285.582-.854.624v.574c-1.457 8.464-2.979 12.754-4.565 12.869v.281l-.281.02v-.562c-.464.408-.842.623-1.135.644-1.294-.663-2.055-.986-2.283-.969v-3.418c0-.195.094-.3.281-.313 0-.187-.094-.274-.281-.26 1.099-4.45 1.953-6.697 2.563-6.742 0-.993.948-3.341 2.844-7.043l3.418-11.919c.765-.349 1.147-.665 1.147-.95v-.854l-.574.042v-.562c.57-.041.854-.253.854-.636l-.574.042v-.281c2.01-1.286 3.247-1.946 3.711-1.979 0-.195.57-.334 1.709-.417 1.351.097 2.112.139 2.283.127 0-.505 1.611-1.004 4.834-1.5zm51.809 2.5l-.574.042c.114.618-.525 3.513-1.917 8.685.122.699-.688 2.658-2.429 5.878 2.734-.395 5.249-.863 7.544-1.404l-.049-.289-.854.062-.049-.277c6.974-2.974 10.213-5.867 9.717-8.679.195-.014.224-.399.085-1.154-1.994-1.564-5.265-2.652-9.814-3.265l-1.66.402zm-14.014 16.548l-.098-.139c.269-.646.358-1.222.269-1.729-.26.019-.818-.416-1.672-1.306l-.049-.277 1.575.74.562-.041c-.024-1.87.826-4.687 2.551-8.45-.146-.811.191-2.162 1.013-4.053l-.11-.566-.281.02c-.374.027-1.29.285-2.747.774l-.391-.545c-2.124 1.107-3.654 1.694-4.59 1.763l-.049-.289-.513.33c-.195.014-.309-.075-.342-.268l-1.367.393-.574.042c-.187.014-.297-.076-.33-.269l-.525.331-.281.02c-.382.028-.606-.147-.671-.525l-.159-.843c1.074-2.552 2.283-3.877 3.625-3.975-.098-.563 1.497-1.342 4.785-2.338-.187-1.052 1.501-1.839 5.066-2.359.399.158.7.23.903.215 1.546-.495 2.462-.753 2.747-.774 3.158-.051 5.762.52 7.813 1.714 1.375.201 2.12.623 2.234 1.265l1.135-.083c1.164-.085 3.564.973 7.202 3.174.798-.058 1.945.428 3.442 1.458l1.379-.381c.098.571.639 1.479 1.624 2.726l.586 1.666c.033.193-.045.296-.232.31l.378.534c-.155 4.764-.879 7.193-2.173 7.287-.399 1.429-1.432 2.643-3.101 3.644l-.574.042-.623-.248c.114.618-.199 1.024-.94 1.216-1.506 1.436-4.456 2.693-8.85 3.77l-.281.02-.623-.235c-.301.209-.663.329-1.086.36l-.195-1.121c-2.865.209-5.815-.146-8.85-1.064.073.434-.224.932-.891 1.493.016.113-.057.151-.22.114-.537.967-1.16 2.265-1.868 3.896-.578.132-3.3 5.099-8.167 14.902-1.424 1.178-2.714 2.598-3.87 4.261l-1.965 1.852-.574.042c4.655-12.351 7.426-19.218 8.313-20.601-.228-1.285.566-3.337 2.38-6.155-.073-.385.008-.965.244-1.739zm53.621-25.708c.187-.014.281.077.281.273l.574-.335.854.511.854-.062c.496.9.968 2.481 1.416 4.743 1.335-.048 2.096 3.123 2.283 9.514-.269.02-.553.516-.854 1.49l-1.135.083c0 .244.472.686 1.416 1.325 0 1.327.289 1.969.867 1.927l1.416.178v.574c0 .448-.761.979-2.283 1.595l.574 4.792-.281.594.281 1.689-.281 2.877-.854.062c-.895.065-2.034-2.419-3.418-7.454 0-.57-.285-.834-.854-.792-1.904.139-4.753 1.201-8.545 3.186l-2.856.208c0 .952-.472 1.463-1.416 1.531-4.012 1.049-6.104 1.58-6.274 1.592-1.945 3.136-3.178 4.939-3.699 5.409-.285.021-1.424 1.243-3.418 3.667-1.139.213-1.709.54-1.709.979l-2.563.187c0-.488-.476-.738-1.428-.75l-1.428-1.605.293-.595c-.382.028-.574-.149-.574-.532 2.214-4.247 4.399-7.445 6.555-9.596.57-.041 1.326-.76 2.271-2.155l2.563-1.615-.281-.541c.041-.54 2.319-3.176 6.836-7.908 0-.285 1.331-1.712 3.992-4.282 0-.61.761-1.614 2.283-3.011 3.638-4.822 6.295-7.294 7.971-7.417l.574-.335zm-3.418 5.95c-2.498 3.494-5.538 8.179-9.119 14.055v.281c2.417.394 3.748.582 3.992.564.138-.01.708-.145 1.709-.405 1.554.074 2.502.196 2.844.367 1.807-.514 2.946-.788 3.418-.823v-2.283c-.382-2.536-.952-4.866-1.709-6.992-.317.023-.509-1.578-.574-4.804l-.562.041zm39.192-5.211c3.044-.222 4.565.046 4.565.803 0 .195.57.345 1.709.449l.281-.594c-.952-.061-1.428-.311-1.428-.75l.574-.042c.822-.06 1.583.361 2.283 1.262l.281-.02v.281l-.574.042 1.147 1.625v1.428c0 1.245-1.331 2.579-3.992 4.002-2.091.006-3.137-.203-3.137-.626v-.854c.562-.041 1.038-.458 1.428-1.252-2.091.152-3.137-.056-3.137-.626l-2.844.5-1.428.104-1.709-.168c-.252.018-1.009.643-2.271 1.874 3.223 2.793 4.834 4.291 4.834 4.494 0 .488 1.139 1.353 3.418 2.595 1.351 1.122 3.442 2.394 6.274 3.815 0 .195.094.286.281.273v-.574l.281-.02c1.139 1.813 1.709 3.387 1.709 4.722v.854l.574-.335.281-.02v.293c-.488 1.517-1.628 2.833-3.418 3.948l.293.552v.562c-2.881 2-6.49 3.5-10.828 4.5l-.574-.239c-1.042.263-1.798.412-2.271.446-1.969.143-4.346-.16-7.129-.909-.334.22-.712.345-1.135.376-1.847.135-4.696-1.656-8.545-5.371-1.343-.814-2.958-2.783-4.846-5.909l.281-.02c3.662 2.012 5.562 3.013 5.701 3.003.057-.387.248-.592.574-.616l1.99 1.003c.366-.222.651-.34.854-.355 1.327.351 1.99.587 1.99.71.374-.214.659-.329.854-.343l.574.239c.366-.214.651-.328.854-.343v.281l.574-.323c.423-.031.802.035 1.135.198l.574-.323c.163-.012 1.68.162 4.553.523.065-.387.256-.592.574-.616l1.709-.124c4.37-.75 6.555-1.572 6.555-2.467.269-.02.553-.325.854-.917-3.906-1.807-6.091-2.693-6.555-2.66-3.345-.407-5.623-1.381-6.836-2.92-3.044-2.244-4.565-4.221-4.565-5.93.496-.036 1.164.2 2.002.709l-.281-1.115c0-1.253.57-2.817 1.709-4.69.187-.014.281.073.281.26 1.619-1.257 4.846-2.44 9.68-3.549.903-.587 2.043-.954 3.418-1.103zm37.556-2.736c3.044-.222 4.565.046 4.565.803 0 .195.57.345 1.709.449l.281-.594c-.952-.061-1.428-.311-1.428-.75l.574-.042c.822-.06 1.583.361 2.283 1.262l.281-.02v.281l-.574.042 1.147 1.625v1.428c0 1.245-1.331 2.579-3.992 4.002-2.091.006-3.137-.203-3.137-.626v-.854c.562-.041 1.038-.458 1.428-1.252-2.091.152-3.137-.056-3.137-.626l-2.844.5-1.428.104-1.709-.168c-.252.018-1.009.643-2.271 1.874 3.223 2.793 4.834 4.291 4.834 4.494 0 .488 1.139 1.353 3.418 2.595 1.351 1.122 3.442 2.394 6.274 3.815 0 .195.094.286.281.273v-.574l.281-.02c1.139 1.813 1.709 3.387 1.709 4.722v.854l.574-.335.281-.02v.293c-.488 1.517-1.628 2.833-3.418 3.948l.293.552v.562c-2.881 2-6.49 3.5-10.828 4.5l-.574-.239c-1.042.263-1.798.412-2.271.446-1.969.143-4.346-.16-7.129-.909-.334.22-.712.345-1.135.376-1.847.135-4.696-1.656-8.545-5.371-1.343-.814-2.958-2.783-4.846-5.909l.281-.02c3.662 2.012 5.562 3.013 5.701 3.003.057-.387.248-.592.574-.616l1.99 1.003c.366-.222.651-.34.854-.355 1.327.351 1.99.587 1.99.71.374-.214.659-.329.854-.343l.574.239c.366-.214.651-.328.854-.343v.281l.574-.323c.423-.031.802.035 1.135.198l.574-.323c.163-.012 1.68.162 4.553.523.065-.387.256-.592.574-.616l1.709-.124c4.37-.75 6.555-1.572 6.555-2.467.269-.02.553-.325.854-.917-3.906-1.807-6.091-2.693-6.555-2.66-3.345-.407-5.623-1.381-6.836-2.92-3.044-2.244-4.565-4.221-4.565-5.93.496-.036 1.164.2 2.002.709l-.281-1.115c0-1.253.57-2.817 1.709-4.69.187-.014.281.073.281.26 1.619-1.257 4.846-2.44 9.68-3.549.903-.587 2.043-.954 3.418-1.103zm38.179-7.542l.281-.02c2.091.222 3.137.618 3.137 1.187.179.02.655 1.031 1.428 3.033 0 .212-.667.923-2.002 2.136-.716 1.786-3.088 4.143-7.117 7.074 0 .521-1.615 2.254-4.846 5.199 0 .228-1.518 1.954-4.553 5.178-1.359.416-3.544 2.757-6.555 7.02 0 1.115-1.233 2.633-3.699 4.554-1.709-.258-2.563-.672-2.563-1.241v-.574c0-.96.854-2.638 2.563-5.033 0-.602 3.609-5.992 10.828-16.17.798-1.124 2.03-2.256 3.699-3.394l-.281-.553c2.108-2.245 3.719-3.408 4.834-3.489 0-.187.098-.288.293-.302l-.293-.552c.732-1.575 2.348-2.926 4.846-4.052zm-29.626 35.776l1.99 1.564c2.848.232 4.272.698 4.272 1.398v1.709c-.57.041-.854.347-.854.917-.757 1.203-1.135 1.987-1.135 2.353-2.466.814-3.699 1.474-3.699 1.978-1.847.135-3.178-1.193-3.992-3.982-.366-.03-.651-.579-.854-1.647 1.676-2.775 3.101-4.205 4.272-4.291z"/></svg>