<svg width="189" height="172" viewBox="0 0 189 172" fill="none" xmlns="http://www.w3.org/2000/svg">
<path d="M152.4 37.4C181.9 44.1 193.7 73.3 180.7 99C175.1 110.1 166.2 117 154.3 121.5" stroke="#FEDF3F" stroke-width="6" stroke-miterlimit="10"/>
<path d="M45.2 32.8V169.2H152.4V32.8L122.1 2.5H75.5L45.2 32.8Z" stroke="black" stroke-width="5" stroke-miterlimit="10"/>
<path d="M99.4 42.1C104.868 42.1 109.3 37.6676 109.3 32.2C109.3 26.7324 104.868 22.3 99.4 22.3C93.9324 22.3 89.5 26.7324 89.5 32.2C89.5 37.6676 93.9324 42.1 99.4 42.1Z" stroke="black" stroke-width="2" stroke-miterlimit="10"/>
<path d="M3 126C8.4 86.4 37.9 53.5 74.8 39.6C85.4 35.6 96.6 33.2 107.9 32.4" stroke="#FEDF3F" stroke-width="6" stroke-miterlimit="10"/>
<path d="M99.4001 118.6C115.03 118.6 127.7 105.93 127.7 90.3C127.7 74.6703 115.03 62 99.4001 62C83.7704 62 71.1001 74.6703 71.1001 90.3C71.1001 105.93 83.7704 118.6 99.4001 118.6Z" stroke="black" stroke-width="4" stroke-miterlimit="10"/>
<path d="M85.2 103.2L113.2 77.6" stroke="#6D6D6D" stroke-width="5" stroke-miterlimit="10"/>
<path d="M149.8 136.8H47.5V166.7H149.8V136.8Z" fill="#6D6D6D"/>
<path d="M107.6 27.1C107.6 27.1 110.5 32.4 107.6 37.4" stroke="black" stroke-width="2" stroke-miterlimit="10"/>
</svg>
