<svg id="Layer_1" data-name="Layer 1" xmlns="http://www.w3.org/2000/svg" xmlns:xlink="http://www.w3.org/1999/xlink" viewBox="0 0 1600 377.66"><defs><style>.cls-1,.cls-17{fill:none;}.cls-2{fill:#dfcdab;}.cls-3{clip-path:url(#clip-path);}.cls-4{fill:#282828;}.cls-5{fill:url(#linear-gradient);}.cls-6{fill:url(#linear-gradient-2);}.cls-7{fill:url(#linear-gradient-3);}.cls-8{fill:#fee1cc;}.cls-9{fill:#414042;}.cls-10{fill:#fed402;}.cls-10,.cls-11{stroke:#fff;}.cls-10,.cls-11,.cls-17{stroke-miterlimit:10;}.cls-11{fill:#f1c09e;}.cls-12{fill:#e5b797;}.cls-13{fill:url(#linear-gradient-4);}.cls-14{fill:url(#linear-gradient-5);}.cls-15{fill:url(#linear-gradient-6);}.cls-16{fill:url(#linear-gradient-7);}.cls-17{stroke:#282828;}.cls-18{fill:url(#linear-gradient-8);}.cls-19{fill:url(#linear-gradient-9);}.cls-20{fill:url(#linear-gradient-10);}.cls-21{fill:url(#linear-gradient-11);}.cls-22{fill:url(#linear-gradient-12);}.cls-23{fill:url(#linear-gradient-13);}.cls-24{fill:url(#linear-gradient-14);}.cls-25{fill:url(#linear-gradient-15);}.cls-26{fill:url(#linear-gradient-16);}.cls-27{fill:url(#linear-gradient-17);}.cls-28{fill:url(#linear-gradient-18);}.cls-29{fill:url(#linear-gradient-19);}.cls-30{fill:url(#linear-gradient-20);}.cls-31{fill:url(#linear-gradient-21);}.cls-32{fill:url(#linear-gradient-22);}</style><clipPath id="clip-path"><path class="cls-1" d="M0,354.2s88.74-56.68,419.3-56.68S872.17,376,1188.06,376,1600,293.15,1600,293.15V0H0Z"/></clipPath><linearGradient id="linear-gradient" x1="1153.24" y1="66.55" x2="1151.82" y2="364.94" gradientTransform="matrix(1.33, -0.01, 0.01, 1.09, -174.34, -37.15)" gradientUnits="userSpaceOnUse"><stop offset="0" stop-color="#f15a29"/><stop offset="1" stop-color="#dc3b26"/></linearGradient><linearGradient id="linear-gradient-2" x1="964.23" y1="81.03" x2="962.7" y2="401.54" gradientTransform="matrix(1.33, -0.01, 0.01, 0.98, -174.16, -6.98)" xlink:href="#linear-gradient"/><linearGradient id="linear-gradient-3" x1="1148.1" y1="111.22" x2="1146.54" y2="439.04" gradientTransform="matrix(1.57, -0.01, 0, 0.81, -409.08, 34.89)" gradientUnits="userSpaceOnUse"><stop offset="0" stop-color="#dc3b26"/><stop offset="0.99" stop-color="#ee7723"/></linearGradient><linearGradient id="linear-gradient-4" x1="858.84" y1="-615.83" x2="903.53" y2="-615.83" gradientTransform="translate(536.96 -359.72) rotate(65.54)" gradientUnits="userSpaceOnUse"><stop offset="0" stop-color="#f4a56e"/><stop offset="0.99" stop-color="#f7941d"/></linearGradient><linearGradient id="linear-gradient-5" x1="898.02" y1="-589" x2="850.91" y2="-636.11" xlink:href="#linear-gradient-4"/><linearGradient id="linear-gradient-6" x1="716.81" y1="-562.2" x2="758.16" y2="-551.26" gradientTransform="translate(551.57 450.2) rotate(20.72)" gradientUnits="userSpaceOnUse"><stop offset="0" stop-color="#f6ceb3"/><stop offset="0.99" stop-color="#f4a56e"/></linearGradient><linearGradient id="linear-gradient-7" x1="748.28" y1="-535.57" x2="722.38" y2="-580.12" xlink:href="#linear-gradient-6"/><linearGradient id="linear-gradient-8" x1="1184.76" y1="503.49" x2="1185.04" y2="177.44" gradientTransform="matrix(1.33, 0, 0, 0.59, -172.76, 86.1)" xlink:href="#linear-gradient-3"/><linearGradient id="linear-gradient-9" x1="839.79" y1="-431.27" x2="907.58" y2="-431.27" gradientTransform="matrix(0.47, 0.88, -0.88, 0.47, 505.04, -315.29)" xlink:href="#linear-gradient-4"/><linearGradient id="linear-gradient-10" x1="899.12" y1="-390.63" x2="827.8" y2="-461.95" gradientTransform="matrix(0.47, 0.88, -0.88, 0.47, 505.04, -315.29)" xlink:href="#linear-gradient-4"/><linearGradient id="linear-gradient-11" x1="1052.86" y1="381.57" x2="1052.86" y2="197.62" gradientTransform="matrix(1, 0, 0, 1, 0, 0)" xlink:href="#linear-gradient-3"/><linearGradient id="linear-gradient-12" x1="999.54" y1="138.98" x2="1089.18" y2="138.98" gradientTransform="matrix(1, 0, 0, 1, 0, 0)" xlink:href="#linear-gradient-4"/><linearGradient id="linear-gradient-13" x1="955.06" y1="143.02" x2="1033.48" y2="143.02" gradientTransform="matrix(1, 0, 0, 1, 0, 0)" xlink:href="#linear-gradient-4"/><linearGradient id="linear-gradient-14" x1="703.72" y1="-587.04" x2="780.3" y2="-566.77" gradientTransform="matrix(0.31, 0.95, -0.95, 0.31, 561.24, -243.33)" xlink:href="#linear-gradient-6"/><linearGradient id="linear-gradient-15" x1="761.98" y1="-537.33" x2="713.66" y2="-620.46" gradientTransform="matrix(0.31, 0.95, -0.95, 0.31, 561.24, -243.33)" xlink:href="#linear-gradient-6"/><linearGradient id="linear-gradient-16" x1="1424.91" y1="73.32" x2="1492.84" y2="73.32" gradientTransform="matrix(1, 0, 0, 1, 0, 0)" xlink:href="#linear-gradient-4"/><linearGradient id="linear-gradient-17" x1="1465.22" y1="69.2" x2="1524.65" y2="69.2" gradientTransform="matrix(1, 0, 0, 1, 0, 0)" xlink:href="#linear-gradient-4"/><linearGradient id="linear-gradient-18" x1="983.79" y1="31.9" x2="1057.42" y2="51.4" gradientTransform="matrix(0.94, 0.33, -0.33, 0.94, 110.68, -51.98)" xlink:href="#linear-gradient-4"/><linearGradient id="linear-gradient-19" x1="1039.84" y1="79.31" x2="993.75" y2="0.02" gradientTransform="matrix(0.94, 0.33, -0.33, 0.94, 110.68, -51.98)" xlink:href="#linear-gradient-4"/><linearGradient id="linear-gradient-20" x1="1072.01" y1="316.8" x2="1115.39" y2="316.8" gradientTransform="translate(-44.58 43.63) rotate(-0.71)" xlink:href="#linear-gradient-6"/><linearGradient id="linear-gradient-21" x1="1109.71" y1="342.32" x2="1065.12" y2="297.73" gradientTransform="translate(-44.58 43.63) rotate(-0.71)" xlink:href="#linear-gradient-6"/><linearGradient id="linear-gradient-22" x1="1222.58" y1="459.85" x2="1223.68" y2="272.05" gradientTransform="matrix(1, -0.01, 0, 0.55, -1.13, 133.93)" xlink:href="#linear-gradient-3"/></defs><title>JKTGO</title><path class="cls-2" d="M0,354.2s88.74-56.68,419.3-56.68S872.17,376,1188.06,376,1600,293.15,1600,293.15V0H0Z"/><path class="cls-1" d="M199.61,293.61s67-51.37,315.13-51.37,323,129.84,560.11,129.84,325.54-78.47,325.54-78.47V-2H199.22Z"/><g class="cls-3"><path class="cls-4" d="M1306.42,76.6H1289a.69.69,0,0,1-.62-1l8.73-17.77a.68.68,0,0,1,1.23,0L1307,75.59A.69.69,0,0,1,1306.42,76.6Z"/><path class="cls-4" d="M1308.32,86.19h-21.25a.85.85,0,0,1-.75-1.23l10.62-21.64a.83.83,0,0,1,1.5,0L1309.06,85A.85.85,0,0,1,1308.32,86.19Z"/><path class="cls-4" d="M1310.17,95.81l-25-.07a1,1,0,0,1-.88-1.45l12.6-25.47a1,1,0,0,1,1.76,0l12.45,25.53A1,1,0,0,1,1310.17,95.81Z"/><rect class="cls-4" x="1296" y="87.42" width="3.38" height="16.53"/><path class="cls-5" d="M1180.11,352.16s28.4-217.49,51.21-245.44,65.9-15.52,77,7.69,10.56-81.5,56.67-81.54,65,76.08,69.89,52.85,32.53-95.8,68.43-37,47.3,301.42,47.3,301.42C1550.6,349.55,1180.11,352.16,1180.11,352.16Z"/><path class="cls-4" d="M1537,93.46h-13.33a.54.54,0,0,1-.47-.78l6.66-13.57a.52.52,0,0,1,.94,0l6.67,13.57A.54.54,0,0,1,1537,93.46Z"/><path class="cls-4" d="M1538.4,100.78h-16.23a.65.65,0,0,1-.58-.94l8.12-16.53a.64.64,0,0,1,1.15,0L1539,99.84A.64.64,0,0,1,1538.4,100.78Z"/><path class="cls-4" d="M1539.82,108.13l-19.13,0A.76.76,0,0,1,1520,107l9.62-19.46a.75.75,0,0,1,1.35,0l9.51,19.5A.77.77,0,0,1,1539.82,108.13Z"/><rect class="cls-4" x="1528.99" y="101.73" width="2.58" height="13.15"/><path class="cls-6" d="M927.85,381.07S956.38,166,979.21,138.35s65.91-15.38,77,7.56,10.6-80.58,56.71-80.66S1298.35,378.8,1298.35,378.8C1298.35,378.25,927.85,381.07,927.85,381.07Z"/><path class="cls-7" d="M1180.12,381.57s34.08-177.84,61.07-200.75S1319,168,1332,186.9s12.67-66.64,67.08-66.8,76.44,62,82.33,43,38.62-78.39,80.83-30.46,55,248.09,55,248.09C1617.28,380.29,1180.12,381.57,1180.12,381.57Z"/><path class="cls-4" d="M1094.59,201h-23.81a1,1,0,0,1-.84-1.38l11.9-24.25a.93.93,0,0,1,1.68,0l11.91,24.25A1,1,0,0,1,1094.59,201Z"/><path class="cls-4" d="M1097.18,214.1h-29a1.16,1.16,0,0,1-1-1.68l14.49-29.52a1.13,1.13,0,0,1,2,0l14.5,29.52A1.16,1.16,0,0,1,1097.18,214.1Z"/><path class="cls-4" d="M1099.71,227.23l-34.16-.09a1.37,1.37,0,0,1-1.2-2l17.18-34.74a1.34,1.34,0,0,1,2.41,0l17,34.84A1.37,1.37,0,0,1,1099.71,227.23Z"/><rect class="cls-4" x="1080.33" y="221.85" width="4.61" height="18.45"/><path class="cls-4" d="M1448.73,254.74a66.91,66.91,0,0,1-5.12-9.33,85.29,85.29,0,0,1-3.81-10,84.39,84.39,0,0,1-2.5-10.47,70.61,70.61,0,0,1-1-10.79,64.55,64.55,0,0,1,3.21-21.53c.25-.88.61-1.72.93-2.58s.65-1.72,1-2.54l1.14-2.51,1.28-2.43.65-1.21.71-1.17,1.43-2.34,2.89-4.44c3.91-5.87,7.87-11.71,11.64-17.6a130.63,130.63,0,0,0,10.16-18.13,82.38,82.38,0,0,0,5.78-19.87c1.2-6.88,1.74-13.92,2.33-21a143.92,143.92,0,0,1,.11,21.28l-.24,2.67c-.09.89-.25,1.77-.37,2.66l-.38,2.67-.55,2.65a50.3,50.3,0,0,1-1.34,5.24l-.37,1.31-.45,1.28-.9,2.56c-.63,1.69-1.38,3.33-2.07,5s-1.57,3.23-2.4,4.83-1.7,3.16-2.59,4.71l-2.7,4.61c-3.72,6.07-7.65,11.93-11.49,17.85l-2.94,4.39-1.35,2.17-.67,1.08-.61,1.11a63.13,63.13,0,0,0-4.21,9.25,65.64,65.64,0,0,0-3.79,20,82.93,82.93,0,0,0,2,20.6,94.41,94.41,0,0,0,2.74,10.11c.53,1.67,1.13,3.32,1.77,5S1448,253.15,1448.73,254.74Z"/><rect class="cls-8" x="1319.3" y="80.17" width="93.61" height="164.69"/><rect class="cls-9" x="1316.84" y="75.7" width="98.52" height="4.46"/><rect class="cls-10" x="1360.88" y="106.11" width="10.45" height="18.55"/><rect class="cls-11" x="1388.96" y="106.11" width="10.45" height="18.55"/><rect class="cls-10" x="1332.8" y="106.11" width="10.45" height="18.55"/><rect class="cls-11" x="1360.88" y="139.59" width="10.45" height="18.55"/><rect class="cls-10" x="1388.96" y="139.59" width="10.45" height="18.55"/><rect class="cls-10" x="1332.8" y="139.59" width="10.45" height="18.55"/><rect class="cls-10" x="1360.88" y="173.07" width="10.45" height="18.55"/><rect class="cls-10" x="1388.96" y="173.07" width="10.45" height="18.55"/><rect class="cls-11" x="1332.8" y="173.07" width="10.45" height="18.55"/><rect class="cls-12" x="1319.3" y="80.17" width="93.35" height="2.23"/><path class="cls-4" d="M1475.6,132a5.9,5.9,0,0,1-4.75,1.18,10.88,10.88,0,0,1-4.71-2.07,23.31,23.31,0,0,1-6.25-7.54,39.73,39.73,0,0,1-3.67-8.55,24.68,24.68,0,0,1-.9-4.68,14.3,14.3,0,0,1,0-2.45,5,5,0,0,1,.67-2.42,3.94,3.94,0,0,0,.4,1.09c.16.34.36.68.54,1,.37.66.74,1.31,1.13,2,.76,1.29,1.49,2.57,2.22,3.87,1.44,2.58,2.75,5.3,3.94,8a33.59,33.59,0,0,0,4.26,7.21,10.83,10.83,0,0,0,3,2.63A6.14,6.14,0,0,0,1475.6,132Z"/><path class="cls-13" d="M1438.24,199.74c0-.74,4,1.33,4.06.53.37-3-.08-7.61,1.81-11.78.27-.6,3.07,1,3.44.39.52-.79-1.43-3.71-.89-4.48a90.15,90.15,0,0,1,8.44-10.09c.86-.89,2.2,2.53,3.06,1.69s1.14-5.82,1.93-6.55a122.09,122.09,0,0,1,18.81-14.16,87.22,87.22,0,0,1,2,9.88c.11.77-3,3.18-2.89,4,.06.58,3.33-.44,3.39.17a74.71,74.71,0,0,1,.35,8.59c0,.72-5.06,3.95-5.11,4.68s4.9-.9,4.82-.1a30,30,0,0,1-4,12.71c-.46.74-6.22,2.53-6.78,3.19-.69.82,3.86.51,3.15,1.26-2.85,3-8.87,8.32-9.5,8.77s4,.36,3.49.72c-6.09,4.06-19.15,6-19.15,6S1438.28,209,1438.24,199.74Z"/><path class="cls-14" d="M1442.3,200.27c.37-3-.08-7.61,1.81-11.78.27-.6,3.07,1,3.44.39.52-.79-1.43-3.71-.89-4.48a90.15,90.15,0,0,1,8.44-10.09c.86-.89,2.2,2.53,3.06,1.69s1.14-5.82,1.93-6.55a122.48,122.48,0,0,1,18.76-14.13l-30,59.82-.15,0s-10.39-6.13-10.43-15.42C1438.24,199,1442.2,201.07,1442.3,200.27Z"/><path class="cls-15" d="M1434.11,209.79c-.42-.41,3-1.37,2.55-1.87-1.5-1.87-4.36-4.19-5.69-7.51-.19-.48,2.25-1.11,2.14-1.63-.17-.71-2.91-1.29-3-2a66.1,66.1,0,0,1-1-10.12c0-.95,2.65.23,2.65-.69s-2.67-3.84-2.64-4.67a89.83,89.83,0,0,1,2.38-17.93,73.62,73.62,0,0,1,6.7,4.44c.5.37.15,3.37.68,3.78.36.28,1.6-2,2-1.73a60.77,60.77,0,0,1,5.07,4.59c.4.41-.56,4.9-.17,5.32s2.21-3.11,2.61-2.62a23.55,23.55,0,0,1,5,9.16c.17.66-2,4.74-2,5.41s2.44-1.79,2.47-1c.15,3.21-.2,9.36-.29,9.94s2.44-1.95,2.35-1.46c-1.08,5.51-7.23,13.56-7.23,13.56S1439.42,214.93,1434.11,209.79Z"/><path class="cls-16" d="M1436.66,207.92c-1.5-1.87-4.36-4.19-5.69-7.51-.19-.48,2.25-1.11,2.14-1.63-.17-.71-2.91-1.29-3-2a66.1,66.1,0,0,1-1-10.12c0-.95,2.65.23,2.65-.69s-2.67-3.84-2.64-4.67a89.48,89.48,0,0,1,2.37-17.88l17.33,49.26-.07.09s-9.24,2.16-14.55-3C1433.69,209.38,1437.07,208.42,1436.66,207.92Z"/><path class="cls-4" d="M1467.16,187.24c2.33,3,6.63,3.77,6.63,3.77s.52-4.2-1.81-7.24-6.62-3.77-6.62-3.77S1464.84,184.2,1467.16,187.24Z"/><path class="cls-4" d="M1480.91,188.73c-3,2.46-7.33,2.25-7.33,2.25s.46-4.21,3.42-6.67,7.33-2.25,7.33-2.25S1483.87,186.27,1480.91,188.73Z"/><path class="cls-4" d="M1466.07,195.7c1.91,3.31,6.07,4.56,6.07,4.56s1.07-4.1-.84-7.4-6.07-4.56-6.07-4.56S1464.16,192.4,1466.07,195.7Z"/><path class="cls-4" d="M1479.51,198.87c-3.27,2.08-7.56,1.33-7.56,1.33a11.25,11.25,0,0,1,4.26-6.19c3.27-2.08,7.56-1.33,7.56-1.33A11.25,11.25,0,0,1,1479.51,198.87Z"/><path class="cls-4" d="M1462.91,205.34c1.52,3.49,5.52,5.18,5.52,5.18s1.53-4,0-7.45-5.51-5.18-5.51-5.18S1461.39,201.85,1462.91,205.34Z"/><path class="cls-4" d="M1475.9,209.94c-3.48,1.71-7.66.5-7.66.5a11.42,11.42,0,0,1,5-5.7c3.48-1.71,7.66-.5,7.66-.5A11.33,11.33,0,0,1,1475.9,209.94Z"/><path class="cls-4" d="M1458.88,213.81c1.1,3.63,4.87,5.76,4.87,5.76s2-3.76.89-7.4-4.86-5.76-4.86-5.76S1457.79,210.17,1458.88,213.81Z"/><path class="cls-4" d="M1471.24,219.83c-3.66,1.31-7.67-.36-7.67-.36a11.53,11.53,0,0,1,5.59-5.11c3.66-1.31,7.67.36,7.67.36A11.53,11.53,0,0,1,1471.24,219.83Z"/><path class="cls-17" d="M1473.47,179.67s2.1,8.61-1.65,21.19a91.63,91.63,0,0,1-11,23"/><path class="cls-4" d="M1470.79,177.43c.17,3.79,3.31,6.73,3.31,6.73s2.86-3.2,2.69-7-3.31-6.72-3.31-6.72S1470.62,173.65,1470.79,177.43Z"/><path class="cls-18" d="M1223.84,380.74s29.52-128.85,52.47-145.38,66-9.08,77,4.69,11-48.28,57.08-48.23,64.57,45.2,69.63,31.43,33-56.72,68.61-21.83,45.76,178.7,45.76,178.7C1594.35,379.8,1223.84,380.74,1223.84,380.74Z"/><path class="cls-19" d="M1262.36,272.37c-.08-1.12,6.12,1.64,6.19.41.25-4.57-.88-11.51,1.55-18,.35-.92,4.74,1.17,5.25.27.7-1.24-2.54-5.48-1.8-6.69a134.94,134.94,0,0,1,11.75-16.07c1.21-1.43,3.57,3.62,4.79,2.27s1.14-8.91,2.27-10.09a183,183,0,0,1,27-23.22,133.68,133.68,0,0,1,4,14.77c.24,1.15-4.2,5.1-4,6.34.16.87,5-1,5.15-.07a111.33,111.33,0,0,1,1.39,13c0,1.1-7.26,6.47-7.25,7.57s7.33-1.82,7.27-.61c-.29,7-1.62,13.92-4.69,19.61-.63,1.16-9.17,4.42-10,5.47-1,1.3,5.9.4,4.91,1.61-4,4.86-12.59,13.43-13.5,14.16s6.13.17,5.35.76c-8.8,6.73-28.36,10.88-28.36,10.88S1263.36,286.42,1262.36,272.37Z"/><path class="cls-20" d="M1268.55,272.78c.25-4.57-.88-11.51,1.55-18,.35-.92,4.74,1.17,5.25.27.7-1.24-2.54-5.48-1.8-6.69a134.94,134.94,0,0,1,11.75-16.07c1.21-1.43,3.57,3.62,4.79,2.27s1.14-8.91,2.27-10.09a183.53,183.53,0,0,1,26.94-23.16l-39.39,93.34-.22.05s-16.33-8.28-17.33-22.33C1262.28,271.25,1268.48,274,1268.55,272.78Z"/><path class="cls-21" d="M947.35,381.57s22.11-183.95,64.9-183.95c31,0,26.8,69.87,86.46,34.94s59.65,149,59.65,149Z"/><rect class="cls-8" x="1117.23" y="74.37" width="158.84" height="236.77"/><rect class="cls-9" x="1113.06" y="68.21" width="167.18" height="6.16"/><rect class="cls-11" x="1187.78" y="119.72" width="17.74" height="25.62"/><rect class="cls-10" x="1235.43" y="119.72" width="17.74" height="25.62"/><rect class="cls-10" x="1140.13" y="119.72" width="17.74" height="25.62"/><rect class="cls-10" x="1187.78" y="165.95" width="17.74" height="25.62"/><rect class="cls-10" x="1235.43" y="165.95" width="17.74" height="25.62"/><rect class="cls-11" x="1140.13" y="165.95" width="17.74" height="25.62"/><rect class="cls-10" x="1187.78" y="212.17" width="17.74" height="25.62"/><rect class="cls-11" x="1235.43" y="212.17" width="17.74" height="25.62"/><rect class="cls-10" x="1140.13" y="212.17" width="17.74" height="25.62"/><path class="cls-4" d="M1054.63,374.17c1.09-2.17,2-4.41,2.93-6.67s1.72-4.53,2.47-6.83a118.7,118.7,0,0,0,3.69-14,102.33,102.33,0,0,0,1.89-14.23,88.26,88.26,0,0,0-.18-14.27,84.09,84.09,0,0,0-2.51-13.95,79.35,79.35,0,0,0-5-13.22c-1-2.13-2.14-4.2-3.35-6.23-.59-1-1.23-2-1.87-3l-2-3c-2.71-4-5.49-7.95-8.3-11.89s-5.68-7.84-8.58-11.73-5.81-7.79-8.66-11.74A267.92,267.92,0,0,1,1008.91,219a113.22,113.22,0,0,1-11.59-27.09,94,94,0,0,1-3.05-29.1,106.79,106.79,0,0,0,5.29,28.42,122,122,0,0,0,12.59,25.83c5.13,8.13,10.86,15.91,16.73,23.62s11.8,15.44,17.56,23.33c2.89,3.94,5.67,8,8.38,12l2,3.07c.67,1.06,1.34,2.12,2,3.2,1.27,2.16,2.45,4.37,3.5,6.65a78.92,78.92,0,0,1,7.17,28.94,91,91,0,0,1-.45,14.86,104.28,104.28,0,0,1-2.8,14.52,109.77,109.77,0,0,1-4.83,13.9A86.43,86.43,0,0,1,1054.63,374.17Z"/><path class="cls-4" d="M1014.8,225.33a27.77,27.77,0,0,0,13.07-8.22,48.2,48.2,0,0,0,8.19-13,97.16,97.16,0,0,0,5.25-15,122.28,122.28,0,0,0,3-16,35.68,35.68,0,0,1,.59,4.11c.14,1.38.19,2.77.21,4.16a62.75,62.75,0,0,1-.44,8.33,64.83,64.83,0,0,1-4.2,16.28c-2.09,5.18-5.11,10.43-9.65,14.2a23.29,23.29,0,0,1-7.59,4.35A16.3,16.3,0,0,1,1014.8,225.33Z"/><ellipse class="cls-22" cx="1044.36" cy="138.98" rx="44.82" ry="43.48"/><ellipse class="cls-23" cx="994.27" cy="143.02" rx="39.21" ry="38.04"/><path class="cls-24" d="M1307.75,297.88c.11-1.09,5.49,2.63,5.75,1.46,1-4.32,1-11.15,4.32-16.92.47-.83,4.26,1.94,4.88,1.16.85-1.06-1.52-5.67-.63-6.7a126.89,126.89,0,0,1,13.58-13.31c1.37-1.16,2.78,4.08,4.14,3s2.48-8.32,3.73-9.25a171.24,171.24,0,0,1,29.06-17.5,132.76,132.76,0,0,1,1.36,14.8c0,1.15-4.75,4.14-4.73,5.37,0,.86,4.85-.07,4.85.82a110.77,110.77,0,0,1-.75,12.63c-.13,1.06-7.84,4.92-8,6s7.16-.47,6.92.69c-1.39,6.68-3.73,13-7.52,17.91-.77,1-9.3,2.64-10.21,3.51-1.1,1.07,5.48,1.4,4.35,2.38-4.53,4-13.95,10.65-14.91,11.19s5.72,1.23,4.9,1.66c-9.33,4.9-28.35,5.47-28.35,5.47S1306.46,311.47,1307.75,297.88Z"/><path class="cls-25" d="M1313.5,299.34c1-4.32,1-11.15,4.32-16.92.47-.83,4.26,1.94,4.88,1.16.85-1.06-1.52-5.67-.63-6.7a126.89,126.89,0,0,1,13.58-13.31c1.37-1.16,2.78,4.08,4.14,3s2.48-8.32,3.73-9.25a172.13,172.13,0,0,1,29-17.46l-51.8,82.35h-.21s-14-10.75-12.73-24.34C1307.86,296.79,1313.24,300.51,1313.5,299.34Z"/><path class="cls-4" d="M1318.92,248.86c2.74,4.3,8.37,5.75,8.37,5.75s1.19-5.53-1.55-9.84-8.37-5.74-8.37-5.74S1316.18,244.56,1318.92,248.86Z"/><path class="cls-4" d="M1337,252.35c-4.24,3-10,2.18-10,2.18s1.1-5.54,5.33-8.49,10-2.18,10-2.18S1341.26,249.4,1337,252.35Z"/><path class="cls-4" d="M1316.47,260c2.15,4.61,7.55,6.74,7.55,6.74s1.9-5.34-.25-10-7.54-6.73-7.54-6.73S1314.32,255.39,1316.47,260Z"/><path class="cls-4" d="M1334,265.69c-4.58,2.41-10.21.93-10.21.93s1.82-5.36,6.41-7.77,10.2-.92,10.2-.92S1338.56,263.29,1334,265.69Z"/><path class="cls-4" d="M1311.14,272.46c1.62,4.81,6.73,7.51,6.73,7.51s2.51-5.1.9-9.91-6.73-7.51-6.73-7.51S1309.53,267.65,1311.14,272.46Z"/><path class="cls-4" d="M1327.88,280c-4.83,1.9-10.25-.17-10.25-.17s2.42-5.14,7.26-7,10.25.18,10.25.18S1332.72,278.12,1327.88,280Z"/><path class="cls-4" d="M1304.79,283.28c1,5,5.79,8.21,5.79,8.21s3.1-4.79,2.07-9.75-5.8-8.2-5.8-8.2S1303.76,278.32,1304.79,283.28Z"/><path class="cls-4" d="M1320.52,292.65c-5,1.34-10.16-1.32-10.16-1.32s3-4.83,8-6.18,10.16,1.32,10.16,1.32S1325.55,291.31,1320.52,292.65Z"/><path class="cls-17" d="M1328.2,239.49s1.78,11.68-4.69,28a123,123,0,0,1-17.35,29.42"/><path class="cls-4" d="M1324.9,236.21c-.22,5,3.61,9.31,3.61,9.31s4.18-3.93,4.39-9-3.61-9.31-3.61-9.31S1325.11,231.16,1324.9,236.21Z"/><rect class="cls-12" x="1117.23" y="74.37" width="158.39" height="3.08"/><path class="cls-4" d="M1479.31,115.69a64.91,64.91,0,0,0,6.69-3.39l.74-.43c.24-.16.47-.34.7-.5.45-.36,1-.63,1.38-1s.87-.72,1.31-1.08.82-.77,1.23-1.14A47.66,47.66,0,0,0,1496,103c1.47-1.9,2.91-3.92,4.52-6.13a16.08,16.08,0,0,1-1.08,8,19.26,19.26,0,0,1-4.6,6.91c-.54.46-1,1-1.62,1.39s-1.18.8-1.78,1.17a20,20,0,0,1-1.93.92c-.33.13-.64.29-1,.4l-1,.27A14,14,0,0,1,1479.31,115.69Z"/><ellipse class="cls-26" cx="1458.88" cy="73.32" rx="33.97" ry="32.95"/><ellipse class="cls-27" cx="1494.93" cy="69.2" rx="29.72" ry="28.83"/><path class="cls-28" d="M1052.92,360.6c-.77-.72,5.2-2.57,4.46-3.45-2.75-3.25-8-7.26-10.44-13.12-.36-.84,4-2.06,3.72-3-.32-1.27-5.22-2.19-5.49-3.45a119.54,119.54,0,0,1-2.3-17.95c-.1-1.7,4.73.3,4.69-1.35s-4.92-6.71-4.91-8.19a160,160,0,0,1,3.48-32,132.16,132.16,0,0,1,12.11,7.63c.9.63.41,6,1.36,6.68.66.49,2.76-3.67,3.44-3.14a105.38,105.38,0,0,1,9.23,7.94c.73.72-.79,8.75-.08,9.49s3.8-5.64,4.54-4.79c4.3,4.95,7.79,10.41,9.34,16.11.32,1.16-3.38,8.5-3.24,9.69.18,1.45,4.25-3.28,4.35-1.86.39,5.7,0,16.66-.1,17.7s4.26-3.57,4.12-2.7c-1.67,9.85-12.27,24.42-12.27,24.42S1062.58,369.51,1052.92,360.6Z"/><path class="cls-29" d="M1057.38,357.15c-2.75-3.25-8-7.26-10.44-13.12-.36-.84,4-2.06,3.72-3-.32-1.27-5.22-2.19-5.49-3.45a119.54,119.54,0,0,1-2.3-17.95c-.1-1.7,4.73.3,4.69-1.35s-4.92-6.71-4.91-8.19a160.38,160.38,0,0,1,3.46-31.89l32.94,86.91-.12.17s-16.35,4.2-26-4.71C1052.15,359.88,1058.12,358,1057.38,357.15Z"/><path class="cls-30" d="M1054.92,371.69c-.66-.27,2.68-2.79,2-3.18-2.51-1.44-6.76-2.81-9.74-6-.42-.45,2-2.19,1.65-2.71-.5-.73-3.82-.21-4.3-.95a83.26,83.26,0,0,1-5.74-10.84c-.46-1.06,3.07-.87,2.66-1.91s-4.72-3.14-5.06-4.08a108,108,0,0,1-5.43-21,92.11,92.11,0,0,1,9.49,2.1c.72.2,1.68,3.69,2.45,3.93.54.16.87-2.95,1.43-2.77a76.48,76.48,0,0,1,7.73,2.95c.64.29,1.59,5.71,2.22,6s1.06-4.43,1.73-4a29.36,29.36,0,0,1,9.75,8.09c.48.66-.11,6.14.26,6.86.46.88,1.91-3,2.31-2.16a119.07,119.07,0,0,1,4.16,11.23c.14.61,1.85-3.22,2-2.64,1.29,6.61-1.94,18.21-1.94,18.21S1063.16,375.16,1054.92,371.69Z"/><path class="cls-31" d="M1056.92,368.51c-2.51-1.44-6.76-2.81-9.74-6-.42-.45,2-2.19,1.65-2.71-.5-.73-3.82-.21-4.3-.95a83.26,83.26,0,0,1-5.74-10.84c-.46-1.06,3.07-.87,2.66-1.91s-4.72-3.14-5.06-4.08a107.69,107.69,0,0,1-5.42-21l41.57,47.59,0,.13s-9.35,6.34-17.59,2.87C1054.26,371.42,1057.6,368.9,1056.92,368.51Z"/><path class="cls-17" d="M1069.13,311.4s-2.72,8.48.13,21.34a91.51,91.51,0,0,0,9.36,23.82"/><path class="cls-4" d="M1072,309.34c-.44,3.78-3.8,6.51-3.8,6.51s-2.63-3.39-2.18-7.17,3.8-6.51,3.8-6.51S1072.43,305.56,1072,309.34Z"/><path class="cls-4" d="M1074.91,319.41c-2.55,2.89-6.91,3.33-6.91,3.33s-.22-4.24,2.33-7.13,6.91-3.33,6.91-3.33S1077.46,316.53,1074.91,319.41Z"/><path class="cls-4" d="M1061,320c2.79,2.67,7.17,2.75,7.17,2.75s-.14-4.25-2.94-6.92-7.17-2.75-7.17-2.75S1058.24,317.3,1061,320Z"/><path class="cls-4" d="M1075.39,328c-2.15,3.17-6.42,4.15-6.42,4.15s-.77-4.18,1.38-7.36,6.42-4.16,6.42-4.16S1077.54,324.79,1075.39,328Z"/><path class="cls-4" d="M1061.7,330.23c3.12,2.3,7.47,1.84,7.47,1.84a11.26,11.26,0,0,0-3.82-6.5c-3.12-2.3-7.48-1.84-7.48-1.84A11.3,11.3,0,0,0,1061.7,330.23Z"/><path class="cls-4" d="M1077.85,337.83c-1.77,3.39-5.9,4.82-5.9,4.82s-1.25-4.07.53-7.46,5.9-4.82,5.9-4.82S1079.63,334.44,1077.85,337.83Z"/><path class="cls-4" d="M1064.5,341.55c3.37,2,7.64,1,7.64,1a11.35,11.35,0,0,0-4.54-6c-3.37-2-7.64-1-7.64-1A11.35,11.35,0,0,0,1064.5,341.55Z"/><path class="cls-4" d="M1081.27,346.59c-1.36,3.57-5.29,5.45-5.29,5.45s-1.72-3.91-.36-7.48,5.29-5.44,5.29-5.44S1082.64,343,1081.27,346.59Z"/><path class="cls-4" d="M1068.46,351.78c3.57,1.56,7.71.16,7.71.16a11.46,11.46,0,0,0-5.23-5.49c-3.58-1.57-7.71-.17-7.71-.17A11.45,11.45,0,0,0,1068.46,351.78Z"/><path class="cls-32" d="M1074.19,381.58s2.88-103.34,58.31-103.68c40.2-.25,51.34,25,62.18,27.54s35.51-28.3,88.43-28.29,88.56,102.68,88.56,102.68Z"/><path class="cls-4" d="M1533.4,160.38h-20.54a.82.82,0,0,1-.72-1.19l10.27-20.91a.8.8,0,0,1,1.45,0l10.27,20.91A.83.83,0,0,1,1533.4,160.38Z"/><path class="cls-4" d="M1535.63,171.66h-25a1,1,0,0,1-.88-1.45l12.5-25.46a1,1,0,0,1,1.76,0l12.5,25.46A1,1,0,0,1,1535.63,171.66Z"/><path class="cls-4" d="M1537.82,183l-29.47-.08a1.18,1.18,0,0,1-1-1.71l14.82-30a1.15,1.15,0,0,1,2.07,0l14.65,30A1.18,1.18,0,0,1,1537.82,183Z"/><rect class="cls-4" x="1521.14" y="173.11" width="3.98" height="15.92"/></g></svg>