<svg width="24" height="24" viewBox="0 0 24 24" fill="none" xmlns="http://www.w3.org/2000/svg">
<path d="M11.9976 3.13298e-06C18.624 -0.0047334 23.9952 5.36175 24 11.9976C24.0095 18.624 18.6335 23.9953 12.0024 24C5.37596 24.0047 0.00473966 18.6382 3.13298e-06 12.0024C-0.00473339 5.37596 5.36175 0.00473966 11.9976 3.13298e-06ZM7.53108 12.4097C7.53108 12.5329 7.53108 12.6229 7.53108 12.7176C7.53108 14.0201 7.53108 15.3227 7.53108 16.6252C7.53108 17.1131 7.73475 17.3073 8.22261 17.3073C8.83836 17.3073 9.45411 17.3073 10.0699 17.3073C10.1456 17.3073 10.2214 17.3073 10.3067 17.3073C10.3067 16.2226 10.3019 15.1711 10.3067 14.1243C10.3067 13.5654 10.6382 13.2433 11.1924 13.2386C11.7134 13.2386 12.2345 13.2386 12.7555 13.2386C13.3712 13.2386 13.6886 13.5512 13.6933 14.167C13.6933 15.1237 13.6933 16.0758 13.6933 17.0326C13.6933 17.1178 13.6933 17.2031 13.6933 17.3073C13.7975 17.3073 13.8733 17.3073 13.9491 17.3073C14.5554 17.3073 15.1664 17.3073 15.7726 17.3073C16.2747 17.3073 16.4689 17.1131 16.4689 16.6015C16.4689 15.3227 16.4689 14.0438 16.4689 12.7649C16.4689 12.675 16.4689 12.5802 16.4689 12.476C16.7626 12.476 17.0183 12.4713 17.2789 12.476C17.4636 12.4808 17.6057 12.4239 17.6815 12.2487C17.7667 12.0592 17.6909 11.9171 17.5583 11.7845C15.8153 10.0414 14.0675 8.29367 12.3197 6.55062C12.0971 6.32801 11.9076 6.32801 11.685 6.54589C9.96092 8.26998 8.23682 9.99408 6.51273 11.7182C6.38484 11.8461 6.31853 11.9882 6.3801 12.1634C6.45115 12.3529 6.60746 12.4097 6.79692 12.4097C7.03375 12.4097 7.26584 12.4097 7.53108 12.4097Z" fill="black"/>
</svg>
